<svg width="1053" height="1124" viewBox="0 0 1053 1124" fill="none" xmlns="http://www.w3.org/2000/svg">
<path d="M1049.9 821.811C1048.19 822.798 1045.42 822.798 1043.71 821.811C1042 820.823 1042 819.223 1043.71 818.236C1045.42 817.248 1048.19 817.248 1049.9 818.236C1051.61 819.223 1051.61 820.823 1049.9 821.811Z" fill="white"/>
<path d="M975.594 864.71C973.884 865.697 971.111 865.697 969.401 864.71C967.691 863.723 967.691 862.122 969.401 861.135C971.111 860.148 973.884 860.148 975.594 861.135C977.304 862.122 977.304 863.723 975.594 864.71Z" fill="white"/>
<path d="M901.284 907.609C899.574 908.596 896.801 908.596 895.091 907.609C893.381 906.622 893.381 905.021 895.091 904.034C896.801 903.047 899.574 903.047 901.284 904.034C902.994 905.021 902.994 906.622 901.284 907.609Z" fill="white"/>
<path d="M826.974 950.508C825.264 951.495 822.492 951.495 820.782 950.508C819.072 949.521 819.072 947.92 820.782 946.933C822.492 945.946 825.264 945.946 826.974 946.933C828.684 947.92 828.684 949.521 826.974 950.508Z" fill="white"/>
<path d="M752.664 993.407C750.954 994.394 748.182 994.394 746.472 993.407C744.762 992.42 744.762 990.819 746.472 989.832C748.182 988.845 750.954 988.845 752.664 989.832C754.374 990.819 754.374 992.42 752.664 993.407Z" fill="white"/>
<path d="M678.354 1036.31C676.644 1037.29 673.872 1037.29 672.162 1036.31C670.452 1035.32 670.452 1033.72 672.162 1032.73C673.872 1031.74 676.644 1031.74 678.354 1032.73C680.064 1033.72 680.064 1035.32 678.354 1036.31Z" fill="white"/>
<path d="M604.044 1079.21C602.334 1080.19 599.562 1080.19 597.852 1079.21C596.142 1078.22 596.142 1076.62 597.852 1075.63C599.562 1074.64 602.334 1074.64 604.044 1075.63C605.754 1076.62 605.754 1078.22 604.044 1079.21Z" fill="white"/>
<path d="M529.734 1122.1C528.024 1123.09 525.252 1123.09 523.542 1122.1C521.832 1121.12 521.832 1119.52 523.542 1118.53C525.252 1117.54 528.024 1117.54 529.734 1118.53C531.444 1119.52 531.444 1121.12 529.734 1122.1Z" fill="white"/>
<path d="M975.594 778.911C973.884 779.899 971.111 779.899 969.401 778.911C967.691 777.924 967.691 776.324 969.401 775.337C971.111 774.349 973.884 774.349 975.594 775.337C977.304 776.324 977.304 777.924 975.594 778.911Z" fill="white"/>
<path d="M901.284 821.811C899.574 822.798 896.801 822.798 895.091 821.811C893.381 820.823 893.381 819.223 895.091 818.236C896.801 817.248 899.574 817.248 901.284 818.236C902.994 819.223 902.994 820.823 901.284 821.811Z" fill="white"/>
<path d="M826.974 864.71C825.264 865.697 822.492 865.697 820.782 864.71C819.072 863.722 819.072 862.122 820.782 861.135C822.492 860.148 825.264 860.148 826.974 861.135C828.684 862.122 828.684 863.722 826.974 864.71Z" fill="white"/>
<path d="M752.664 907.609C750.954 908.596 748.182 908.596 746.472 907.609C744.762 906.622 744.762 905.021 746.472 904.034C748.182 903.047 750.954 903.047 752.664 904.034C754.374 905.021 754.374 906.622 752.664 907.609Z" fill="white"/>
<path d="M678.354 950.508C676.644 951.495 673.872 951.495 672.162 950.508C670.452 949.521 670.452 947.92 672.162 946.933C673.872 945.946 676.644 945.946 678.354 946.933C680.064 947.92 680.064 949.521 678.354 950.508Z" fill="white"/>
<path d="M604.044 993.407C602.334 994.394 599.562 994.394 597.852 993.407C596.142 992.42 596.142 990.819 597.852 989.832C599.562 988.845 602.334 988.845 604.044 989.832C605.754 990.819 605.754 992.42 604.044 993.407Z" fill="white"/>
<path d="M529.734 1036.31C528.024 1037.29 525.252 1037.29 523.542 1036.31C521.832 1035.32 521.832 1033.72 523.542 1032.73C525.252 1031.74 528.024 1031.74 529.734 1032.73C531.444 1033.72 531.444 1035.32 529.734 1036.31Z" fill="white"/>
<path d="M455.425 1079.21C453.715 1080.19 450.942 1080.19 449.232 1079.21C447.522 1078.22 447.522 1076.62 449.232 1075.63C450.942 1074.64 453.715 1074.64 455.425 1075.63C457.135 1076.62 457.135 1078.22 455.425 1079.21Z" fill="white"/>
<path d="M901.284 736.012C899.574 737 896.801 737 895.091 736.012C893.381 735.025 893.381 733.425 895.091 732.437C896.801 731.45 899.574 731.45 901.284 732.437C902.994 733.425 902.994 735.025 901.284 736.012Z" fill="white"/>
<path d="M826.974 778.911C825.264 779.899 822.492 779.899 820.782 778.911C819.072 777.924 819.072 776.324 820.782 775.337C822.492 774.349 825.264 774.349 826.974 775.337C828.684 776.324 828.684 777.924 826.974 778.911Z" fill="white"/>
<path d="M752.664 821.811C750.954 822.798 748.182 822.798 746.472 821.811C744.762 820.823 744.762 819.223 746.472 818.236C748.182 817.248 750.954 817.248 752.664 818.236C754.374 819.223 754.374 820.823 752.664 821.811Z" fill="white"/>
<path d="M678.354 864.71C676.644 865.697 673.872 865.697 672.162 864.71C670.452 863.722 670.452 862.122 672.162 861.135C673.872 860.148 676.644 860.148 678.354 861.135C680.064 862.122 680.064 863.722 678.354 864.71Z" fill="white"/>
<path d="M604.044 907.609C602.334 908.596 599.562 908.596 597.852 907.609C596.142 906.622 596.142 905.021 597.852 904.034C599.562 903.047 602.334 903.047 604.044 904.034C605.754 905.021 605.754 906.622 604.044 907.609Z" fill="white"/>
<path d="M529.734 950.508C528.024 951.495 525.252 951.495 523.542 950.508C521.832 949.521 521.832 947.92 523.542 946.933C525.252 945.946 528.024 945.946 529.734 946.933C531.444 947.92 531.444 949.521 529.734 950.508Z" fill="white"/>
<path d="M455.425 993.407C453.715 994.394 450.942 994.394 449.232 993.407C447.522 992.42 447.522 990.819 449.232 989.832C450.942 988.845 453.715 988.845 455.425 989.832C457.135 990.819 457.135 992.42 455.425 993.407Z" fill="white"/>
<path d="M381.115 1036.31C379.405 1037.29 376.632 1037.29 374.922 1036.31C373.212 1035.32 373.212 1033.72 374.922 1032.73C376.632 1031.74 379.405 1031.74 381.115 1032.73C382.825 1033.72 382.825 1035.32 381.115 1036.31Z" fill="white"/>
<path d="M826.974 693.113C825.264 694.1 822.492 694.1 820.782 693.113C819.072 692.126 819.072 690.526 820.782 689.538C822.492 688.551 825.264 688.551 826.974 689.538C828.684 690.526 828.684 692.126 826.974 693.113Z" fill="white"/>
<path d="M752.664 736.012C750.954 737 748.182 737 746.472 736.012C744.762 735.025 744.762 733.425 746.472 732.437C748.182 731.45 750.954 731.45 752.664 732.437C754.374 733.425 754.374 735.025 752.664 736.012Z" fill="white"/>
<path d="M678.354 778.911C676.644 779.899 673.872 779.899 672.162 778.911C670.452 777.924 670.452 776.324 672.162 775.337C673.872 774.349 676.644 774.349 678.354 775.337C680.064 776.324 680.064 777.924 678.354 778.911Z" fill="white"/>
<path d="M604.044 821.811C602.334 822.798 599.562 822.798 597.852 821.811C596.142 820.823 596.142 819.223 597.852 818.236C599.562 817.248 602.334 817.248 604.044 818.236C605.754 819.223 605.754 820.823 604.044 821.811Z" fill="white"/>
<path d="M529.734 864.71C528.024 865.697 525.252 865.697 523.542 864.71C521.832 863.722 521.832 862.122 523.542 861.135C525.252 860.148 528.024 860.148 529.734 861.135C531.444 862.122 531.444 863.722 529.734 864.71Z" fill="white"/>
<path d="M455.425 907.609C453.715 908.596 450.942 908.596 449.232 907.609C447.522 906.622 447.522 905.021 449.232 904.034C450.942 903.047 453.715 903.047 455.425 904.034C457.135 905.021 457.135 906.622 455.425 907.609Z" fill="white"/>
<path d="M381.115 950.508C379.405 951.495 376.632 951.495 374.922 950.508C373.212 949.521 373.212 947.92 374.922 946.933C376.632 945.946 379.405 945.946 381.115 946.933C382.825 947.92 382.825 949.521 381.115 950.508Z" fill="white"/>
<path d="M306.805 993.407C305.095 994.394 302.322 994.394 300.612 993.407C298.902 992.42 298.902 990.819 300.612 989.832C302.322 988.845 305.095 988.845 306.805 989.832C308.515 990.819 308.515 992.42 306.805 993.407Z" fill="white"/>
<path d="M752.664 650.214C750.954 651.201 748.182 651.201 746.472 650.214C744.762 649.227 744.762 647.626 746.472 646.639C748.182 645.652 750.954 645.652 752.664 646.639C754.374 647.626 754.374 649.227 752.664 650.214Z" fill="white"/>
<path d="M678.354 693.113C676.644 694.1 673.872 694.1 672.162 693.113C670.452 692.126 670.452 690.525 672.162 689.538C673.872 688.551 676.644 688.551 678.354 689.538C680.064 690.525 680.064 692.126 678.354 693.113Z" fill="white"/>
<path d="M604.044 736.012C602.334 737 599.562 737 597.852 736.012C596.142 735.025 596.142 733.425 597.852 732.437C599.562 731.45 602.334 731.45 604.044 732.437C605.754 733.425 605.754 735.025 604.044 736.012Z" fill="white"/>
<path d="M529.734 778.911C528.024 779.899 525.252 779.899 523.542 778.911C521.832 777.924 521.832 776.324 523.542 775.336C525.252 774.349 528.024 774.349 529.734 775.336C531.444 776.324 531.444 777.924 529.734 778.911Z" fill="white"/>
<path d="M455.425 821.811C453.715 822.798 450.942 822.798 449.232 821.811C447.522 820.823 447.522 819.223 449.232 818.236C450.942 817.248 453.715 817.248 455.425 818.236C457.135 819.223 457.135 820.823 455.425 821.811Z" fill="white"/>
<path d="M381.115 864.71C379.405 865.697 376.632 865.697 374.922 864.71C373.212 863.722 373.212 862.122 374.922 861.135C376.632 860.147 379.405 860.147 381.115 861.135C382.825 862.122 382.825 863.722 381.115 864.71Z" fill="white"/>
<path d="M306.805 907.609C305.095 908.596 302.322 908.596 300.612 907.609C298.902 906.622 298.902 905.021 300.612 904.034C302.322 903.047 305.095 903.047 306.805 904.034C308.515 905.021 308.515 906.622 306.805 907.609Z" fill="white"/>
<path d="M232.495 950.508C230.785 951.495 228.012 951.495 226.302 950.508C224.592 949.521 224.592 947.92 226.302 946.933C228.012 945.946 230.785 945.946 232.495 946.933C234.205 947.92 234.205 949.521 232.495 950.508Z" fill="white"/>
<path d="M678.354 607.315C676.644 608.302 673.872 608.302 672.162 607.315C670.452 606.328 670.452 604.727 672.162 603.74C673.872 602.753 676.644 602.753 678.354 603.74C680.064 604.727 680.064 606.328 678.354 607.315Z" fill="white"/>
<path d="M604.044 650.214C602.334 651.201 599.562 651.201 597.852 650.214C596.142 649.227 596.142 647.626 597.852 646.639C599.562 645.652 602.334 645.652 604.044 646.639C605.754 647.626 605.754 649.227 604.044 650.214Z" fill="white"/>
<path d="M529.734 693.113C528.024 694.1 525.252 694.1 523.542 693.113C521.832 692.126 521.832 690.525 523.542 689.538C525.252 688.551 528.024 688.551 529.734 689.538C531.445 690.525 531.445 692.126 529.734 693.113Z" fill="white"/>
<path d="M455.425 736.012C453.715 736.999 450.942 736.999 449.232 736.012C447.522 735.025 447.522 733.425 449.232 732.437C450.942 731.45 453.715 731.45 455.425 732.437C457.135 733.425 457.135 735.025 455.425 736.012Z" fill="white"/>
<path d="M381.115 778.911C379.405 779.899 376.632 779.899 374.922 778.911C373.212 777.924 373.212 776.324 374.922 775.336C376.632 774.349 379.405 774.349 381.115 775.336C382.825 776.324 382.825 777.924 381.115 778.911Z" fill="white"/>
<path d="M306.805 821.81C305.095 822.798 302.322 822.798 300.612 821.81C298.902 820.823 298.902 819.223 300.612 818.236C302.322 817.248 305.095 817.248 306.805 818.236C308.515 819.223 308.515 820.823 306.805 821.81Z" fill="white"/>
<path d="M232.495 864.71C230.785 865.697 228.012 865.697 226.302 864.71C224.592 863.722 224.592 862.122 226.302 861.135C228.012 860.147 230.785 860.147 232.495 861.135C234.205 862.122 234.205 863.722 232.495 864.71Z" fill="white"/>
<path d="M158.185 907.609C156.475 908.596 153.703 908.596 151.993 907.609C150.282 906.621 150.282 905.021 151.993 904.034C153.703 903.047 156.475 903.047 158.185 904.034C159.895 905.021 159.895 906.621 158.185 907.609Z" fill="white"/>
<path d="M604.044 564.416C602.334 565.403 599.562 565.403 597.852 564.416C596.142 563.429 596.142 561.828 597.852 560.841C599.562 559.854 602.334 559.854 604.044 560.841C605.754 561.828 605.754 563.429 604.044 564.416Z" fill="white"/>
<path d="M529.735 607.315C528.024 608.302 525.252 608.302 523.542 607.315C521.832 606.328 521.832 604.727 523.542 603.74C525.252 602.753 528.024 602.753 529.735 603.74C531.445 604.727 531.445 606.328 529.735 607.315Z" fill="white"/>
<path d="M455.425 650.214C453.715 651.201 450.942 651.201 449.232 650.214C447.522 649.227 447.522 647.626 449.232 646.639C450.942 645.652 453.715 645.652 455.425 646.639C457.135 647.626 457.135 649.227 455.425 650.214Z" fill="white"/>
<path d="M381.115 693.113C379.405 694.1 376.632 694.1 374.922 693.113C373.212 692.126 373.212 690.525 374.922 689.538C376.632 688.551 379.405 688.551 381.115 689.538C382.825 690.525 382.825 692.126 381.115 693.113Z" fill="white"/>
<path d="M306.805 736.012C305.095 736.999 302.322 736.999 300.612 736.012C298.902 735.025 298.902 733.425 300.612 732.437C302.322 731.45 305.095 731.45 306.805 732.437C308.515 733.425 308.515 735.025 306.805 736.012Z" fill="white"/>
<path d="M232.495 778.911C230.785 779.899 228.012 779.899 226.302 778.911C224.592 777.924 224.592 776.324 226.302 775.336C228.012 774.349 230.785 774.349 232.495 775.336C234.205 776.324 234.205 777.924 232.495 778.911Z" fill="white"/>
<path d="M158.185 821.81C156.475 822.798 153.703 822.798 151.993 821.81C150.283 820.823 150.283 819.223 151.993 818.236C153.703 817.248 156.475 817.248 158.185 818.236C159.895 819.223 159.895 820.823 158.185 821.81Z" fill="white"/>
<path d="M83.8751 864.71C82.1651 865.697 79.3926 865.697 77.6826 864.71C75.9726 863.722 75.9726 862.122 77.6826 861.135C79.3926 860.147 82.1651 860.147 83.8751 861.135C85.5851 862.122 85.5851 863.722 83.8751 864.71Z" fill="white"/>
<path d="M529.735 521.517C528.025 522.504 525.252 522.504 523.542 521.517C521.832 520.53 521.832 518.929 523.542 517.942C525.252 516.955 528.025 516.955 529.735 517.942C531.445 518.929 531.445 520.53 529.735 521.517Z" fill="white"/>
<path d="M455.425 564.416C453.715 565.403 450.942 565.403 449.232 564.416C447.522 563.429 447.522 561.828 449.232 560.841C450.942 559.854 453.715 559.854 455.425 560.841C457.135 561.828 457.135 563.429 455.425 564.416Z" fill="white"/>
<path d="M381.115 607.315C379.405 608.302 376.632 608.302 374.922 607.315C373.212 606.328 373.212 604.727 374.922 603.74C376.632 602.753 379.405 602.753 381.115 603.74C382.825 604.727 382.825 606.328 381.115 607.315Z" fill="white"/>
<path d="M306.805 650.214C305.095 651.201 302.322 651.201 300.612 650.214C298.902 649.227 298.902 647.626 300.612 646.639C302.322 645.652 305.095 645.652 306.805 646.639C308.515 647.626 308.515 649.227 306.805 650.214Z" fill="white"/>
<path d="M232.495 693.113C230.785 694.1 228.012 694.1 226.302 693.113C224.592 692.126 224.592 690.525 226.302 689.538C228.012 688.551 230.785 688.551 232.495 689.538C234.205 690.525 234.205 692.126 232.495 693.113Z" fill="white"/>
<path d="M158.185 736.012C156.475 736.999 153.703 736.999 151.993 736.012C150.283 735.025 150.283 733.425 151.993 732.437C153.703 731.45 156.475 731.45 158.185 732.437C159.895 733.425 159.895 735.025 158.185 736.012Z" fill="white"/>
<path d="M83.8751 778.911C82.1651 779.899 79.3926 779.899 77.6826 778.911C75.9726 777.924 75.9726 776.324 77.6826 775.336C79.3926 774.349 82.1651 774.349 83.8751 775.336C85.5851 776.324 85.5851 777.924 83.8751 778.911Z" fill="white"/>
<path d="M9.56521 821.81C7.8552 822.798 5.08273 822.798 3.37272 821.81C1.66271 820.823 1.66271 819.223 3.37272 818.236C5.08273 817.248 7.8552 817.248 9.56521 818.236C11.2752 819.223 11.2752 820.823 9.56521 821.81Z" fill="white"/>
<g opacity="0.4">
<path d="M1049.9 649.759C1048.19 650.746 1045.42 650.746 1043.71 649.759C1042 648.772 1042 647.171 1043.71 646.184C1045.42 645.197 1048.19 645.197 1049.9 646.184C1051.61 647.171 1051.61 648.772 1049.9 649.759Z" fill="white"/>
<path d="M975.594 692.658C973.884 693.645 971.111 693.645 969.401 692.658C967.691 691.671 967.691 690.07 969.401 689.083C971.111 688.096 973.884 688.096 975.594 689.083C977.304 690.071 977.304 691.671 975.594 692.658Z" fill="white"/>
<path d="M901.284 735.557C899.574 736.545 896.801 736.545 895.091 735.557C893.381 734.57 893.381 732.97 895.091 731.982C896.801 730.995 899.574 730.995 901.284 731.982C902.994 732.97 902.994 734.57 901.284 735.557Z" fill="white"/>
<path d="M826.974 778.456C825.264 779.444 822.492 779.444 820.782 778.456C819.072 777.469 819.072 775.869 820.782 774.882C822.492 773.894 825.264 773.894 826.974 774.882C828.684 775.869 828.684 777.469 826.974 778.456Z" fill="white"/>
<path d="M752.664 821.356C750.954 822.343 748.182 822.343 746.472 821.356C744.762 820.368 744.762 818.768 746.472 817.781C748.182 816.793 750.954 816.793 752.664 817.781C754.374 818.768 754.374 820.368 752.664 821.356Z" fill="white"/>
<path d="M678.354 864.255C676.644 865.242 673.872 865.242 672.162 864.255C670.452 863.267 670.452 861.667 672.162 860.68C673.872 859.693 676.644 859.693 678.354 860.68C680.064 861.667 680.064 863.267 678.354 864.255Z" fill="white"/>
<path d="M604.044 907.154C602.334 908.141 599.562 908.141 597.852 907.154C596.142 906.167 596.142 904.566 597.852 903.579C599.562 902.592 602.334 902.592 604.044 903.579C605.754 904.566 605.754 906.167 604.044 907.154Z" fill="white"/>
<path d="M529.734 950.053C528.024 951.04 525.252 951.04 523.542 950.053C521.832 949.066 521.832 947.465 523.542 946.478C525.252 945.491 528.024 945.491 529.734 946.478C531.444 947.465 531.444 949.066 529.734 950.053Z" fill="white"/>
<path d="M975.594 606.86C973.884 607.847 971.111 607.847 969.401 606.86C967.691 605.873 967.691 604.272 969.401 603.285C971.111 602.298 973.884 602.298 975.594 603.285C977.304 604.272 977.304 605.873 975.594 606.86Z" fill="white"/>
<path d="M901.284 649.759C899.574 650.746 896.801 650.746 895.091 649.759C893.381 648.772 893.381 647.171 895.091 646.184C896.801 645.197 899.574 645.197 901.284 646.184C902.994 647.171 902.994 648.772 901.284 649.759Z" fill="white"/>
<path d="M826.974 692.658C825.264 693.645 822.492 693.645 820.782 692.658C819.072 691.671 819.072 690.07 820.782 689.083C822.492 688.096 825.264 688.096 826.974 689.083C828.684 690.07 828.684 691.671 826.974 692.658Z" fill="white"/>
<path d="M752.664 735.557C750.954 736.545 748.182 736.545 746.472 735.557C744.762 734.57 744.762 732.97 746.472 731.982C748.182 730.995 750.954 730.995 752.664 731.982C754.374 732.97 754.374 734.57 752.664 735.557Z" fill="white"/>
<path d="M678.354 778.456C676.644 779.444 673.872 779.444 672.162 778.456C670.452 777.469 670.452 775.869 672.162 774.881C673.872 773.894 676.644 773.894 678.354 774.881C680.064 775.869 680.064 777.469 678.354 778.456Z" fill="white"/>
<path d="M604.044 821.356C602.334 822.343 599.562 822.343 597.852 821.356C596.142 820.368 596.142 818.768 597.852 817.781C599.562 816.793 602.334 816.793 604.044 817.781C605.754 818.768 605.754 820.368 604.044 821.356Z" fill="white"/>
<path d="M529.734 864.255C528.024 865.242 525.252 865.242 523.542 864.255C521.832 863.267 521.832 861.667 523.542 860.68C525.252 859.692 528.024 859.692 529.734 860.68C531.444 861.667 531.444 863.267 529.734 864.255Z" fill="white"/>
<path d="M455.425 907.154C453.715 908.141 450.942 908.141 449.232 907.154C447.522 906.167 447.522 904.566 449.232 903.579C450.942 902.592 453.715 902.592 455.425 903.579C457.135 904.566 457.135 906.167 455.425 907.154Z" fill="white"/>
<path d="M901.284 563.961C899.574 564.948 896.801 564.948 895.091 563.961C893.381 562.974 893.381 561.373 895.091 560.386C896.801 559.399 899.574 559.399 901.284 560.386C902.994 561.373 902.994 562.974 901.284 563.961Z" fill="white"/>
<path d="M826.974 606.86C825.264 607.847 822.492 607.847 820.782 606.86C819.072 605.873 819.072 604.272 820.782 603.285C822.492 602.298 825.264 602.298 826.974 603.285C828.684 604.272 828.684 605.873 826.974 606.86Z" fill="white"/>
<path d="M752.664 649.759C750.954 650.746 748.182 650.746 746.472 649.759C744.762 648.772 744.762 647.171 746.472 646.184C748.182 645.197 750.954 645.197 752.664 646.184C754.374 647.171 754.374 648.772 752.664 649.759Z" fill="white"/>
<path d="M678.354 692.658C676.644 693.645 673.872 693.645 672.162 692.658C670.452 691.671 670.452 690.07 672.162 689.083C673.872 688.096 676.644 688.096 678.354 689.083C680.064 690.07 680.064 691.671 678.354 692.658Z" fill="white"/>
<path d="M604.044 735.557C602.334 736.544 599.562 736.544 597.852 735.557C596.142 734.57 596.142 732.97 597.852 731.982C599.562 730.995 602.334 730.995 604.044 731.982C605.754 732.97 605.754 734.57 604.044 735.557Z" fill="white"/>
<path d="M529.734 778.456C528.024 779.444 525.252 779.444 523.542 778.456C521.832 777.469 521.832 775.869 523.542 774.881C525.252 773.894 528.024 773.894 529.734 774.881C531.444 775.869 531.444 777.469 529.734 778.456Z" fill="white"/>
<path d="M455.425 821.355C453.715 822.343 450.942 822.343 449.232 821.355C447.522 820.368 447.522 818.768 449.232 817.781C450.942 816.793 453.715 816.793 455.425 817.781C457.135 818.768 457.135 820.368 455.425 821.355Z" fill="white"/>
<path d="M381.115 864.255C379.405 865.242 376.632 865.242 374.922 864.255C373.212 863.267 373.212 861.667 374.922 860.68C376.632 859.692 379.405 859.692 381.115 860.68C382.825 861.667 382.825 863.267 381.115 864.255Z" fill="white"/>
<path d="M826.974 521.062C825.264 522.049 822.492 522.049 820.782 521.062C819.072 520.075 819.072 518.474 820.782 517.487C822.492 516.5 825.264 516.5 826.974 517.487C828.684 518.474 828.684 520.075 826.974 521.062Z" fill="white"/>
<path d="M752.664 563.961C750.954 564.948 748.182 564.948 746.472 563.961C744.762 562.974 744.762 561.373 746.472 560.386C748.182 559.399 750.954 559.399 752.664 560.386C754.374 561.373 754.374 562.974 752.664 563.961Z" fill="white"/>
<path d="M678.354 606.86C676.644 607.847 673.872 607.847 672.162 606.86C670.452 605.873 670.452 604.272 672.162 603.285C673.872 602.298 676.644 602.298 678.354 603.285C680.064 604.272 680.064 605.873 678.354 606.86Z" fill="white"/>
<path d="M604.044 649.759C602.334 650.746 599.562 650.746 597.852 649.759C596.142 648.772 596.142 647.171 597.852 646.184C599.562 645.197 602.334 645.197 604.044 646.184C605.754 647.171 605.754 648.772 604.044 649.759Z" fill="white"/>
<path d="M529.734 692.658C528.024 693.645 525.252 693.645 523.542 692.658C521.832 691.671 521.832 690.07 523.542 689.083C525.252 688.096 528.024 688.096 529.734 689.083C531.444 690.07 531.444 691.671 529.734 692.658Z" fill="white"/>
<path d="M455.425 735.557C453.715 736.544 450.942 736.544 449.232 735.557C447.522 734.57 447.522 732.97 449.232 731.982C450.942 730.995 453.715 730.995 455.425 731.982C457.135 732.97 457.135 734.57 455.425 735.557Z" fill="white"/>
<path d="M381.115 778.456C379.405 779.444 376.632 779.444 374.922 778.456C373.212 777.469 373.212 775.869 374.922 774.881C376.632 773.894 379.405 773.894 381.115 774.881C382.825 775.869 382.825 777.469 381.115 778.456Z" fill="white"/>
<path d="M306.805 821.355C305.095 822.343 302.322 822.343 300.612 821.355C298.902 820.368 298.902 818.768 300.612 817.781C302.322 816.793 305.095 816.793 306.805 817.781C308.515 818.768 308.515 820.368 306.805 821.355Z" fill="white"/>
<path d="M752.664 478.163C750.954 479.15 748.182 479.15 746.472 478.163C744.762 477.175 744.762 475.575 746.472 474.588C748.182 473.601 750.954 473.601 752.664 474.588C754.374 475.575 754.374 477.175 752.664 478.163Z" fill="white"/>
<path d="M678.354 521.062C676.644 522.049 673.872 522.049 672.162 521.062C670.452 520.075 670.452 518.474 672.162 517.487C673.872 516.5 676.644 516.5 678.354 517.487C680.064 518.474 680.064 520.075 678.354 521.062Z" fill="white"/>
<path d="M604.044 563.961C602.334 564.948 599.562 564.948 597.852 563.961C596.142 562.974 596.142 561.373 597.852 560.386C599.562 559.399 602.334 559.399 604.044 560.386C605.754 561.373 605.754 562.974 604.044 563.961Z" fill="white"/>
<path d="M529.734 606.86C528.024 607.847 525.252 607.847 523.542 606.86C521.832 605.873 521.832 604.272 523.542 603.285C525.252 602.298 528.024 602.298 529.734 603.285C531.444 604.272 531.444 605.873 529.734 606.86Z" fill="white"/>
<path d="M455.425 649.759C453.715 650.746 450.942 650.746 449.232 649.759C447.522 648.772 447.522 647.171 449.232 646.184C450.942 645.197 453.715 645.197 455.425 646.184C457.135 647.171 457.135 648.772 455.425 649.759Z" fill="white"/>
<path d="M381.115 692.658C379.405 693.645 376.632 693.645 374.922 692.658C373.212 691.671 373.212 690.07 374.922 689.083C376.632 688.096 379.405 688.096 381.115 689.083C382.825 690.07 382.825 691.671 381.115 692.658Z" fill="white"/>
<path d="M306.805 735.557C305.095 736.544 302.322 736.544 300.612 735.557C298.902 734.57 298.902 732.97 300.612 731.982C302.322 730.995 305.095 730.995 306.805 731.982C308.515 732.97 308.515 734.57 306.805 735.557Z" fill="white"/>
<path d="M232.495 778.456C230.785 779.444 228.012 779.444 226.302 778.456C224.592 777.469 224.592 775.869 226.302 774.881C228.012 773.894 230.785 773.894 232.495 774.881C234.205 775.869 234.205 777.469 232.495 778.456Z" fill="white"/>
<path d="M678.354 435.264C676.644 436.251 673.872 436.251 672.162 435.264C670.452 434.276 670.452 432.676 672.162 431.689C673.872 430.701 676.644 430.701 678.354 431.689C680.064 432.676 680.064 434.276 678.354 435.264Z" fill="white"/>
<path d="M604.044 478.163C602.334 479.15 599.562 479.15 597.852 478.163C596.142 477.175 596.142 475.575 597.852 474.588C599.562 473.601 602.334 473.601 604.044 474.588C605.754 475.575 605.754 477.175 604.044 478.163Z" fill="white"/>
<path d="M529.734 521.062C528.024 522.049 525.252 522.049 523.542 521.062C521.832 520.075 521.832 518.474 523.542 517.487C525.252 516.5 528.024 516.5 529.734 517.487C531.445 518.474 531.445 520.075 529.734 521.062Z" fill="white"/>
<path d="M455.425 563.961C453.715 564.948 450.942 564.948 449.232 563.961C447.522 562.974 447.522 561.373 449.232 560.386C450.942 559.399 453.715 559.399 455.425 560.386C457.135 561.373 457.135 562.974 455.425 563.961Z" fill="white"/>
<path d="M381.115 606.86C379.405 607.847 376.632 607.847 374.922 606.86C373.212 605.873 373.212 604.272 374.922 603.285C376.632 602.298 379.405 602.298 381.115 603.285C382.825 604.272 382.825 605.873 381.115 606.86Z" fill="white"/>
<path d="M306.805 649.759C305.095 650.746 302.322 650.746 300.612 649.759C298.902 648.772 298.902 647.171 300.612 646.184C302.322 645.197 305.095 645.197 306.805 646.184C308.515 647.171 308.515 648.772 306.805 649.759Z" fill="white"/>
<path d="M232.495 692.658C230.785 693.645 228.012 693.645 226.302 692.658C224.592 691.671 224.592 690.07 226.302 689.083C228.012 688.096 230.785 688.096 232.495 689.083C234.205 690.07 234.205 691.671 232.495 692.658Z" fill="white"/>
<path d="M158.185 735.557C156.475 736.544 153.703 736.544 151.993 735.557C150.282 734.57 150.282 732.969 151.993 731.982C153.703 730.995 156.475 730.995 158.185 731.982C159.895 732.969 159.895 734.57 158.185 735.557Z" fill="white"/>
<path d="M604.044 392.364C602.334 393.352 599.562 393.352 597.852 392.364C596.142 391.377 596.142 389.777 597.852 388.79C599.562 387.802 602.334 387.802 604.044 388.79C605.754 389.777 605.754 391.377 604.044 392.364Z" fill="white"/>
<path d="M529.735 435.264C528.024 436.251 525.252 436.251 523.542 435.264C521.832 434.276 521.832 432.676 523.542 431.689C525.252 430.701 528.024 430.701 529.735 431.689C531.445 432.676 531.445 434.276 529.735 435.264Z" fill="white"/>
<path d="M455.425 478.163C453.715 479.15 450.942 479.15 449.232 478.163C447.522 477.175 447.522 475.575 449.232 474.588C450.942 473.601 453.715 473.601 455.425 474.588C457.135 475.575 457.135 477.175 455.425 478.163Z" fill="white"/>
<path d="M381.115 521.062C379.405 522.049 376.632 522.049 374.922 521.062C373.212 520.075 373.212 518.474 374.922 517.487C376.632 516.5 379.405 516.5 381.115 517.487C382.825 518.474 382.825 520.075 381.115 521.062Z" fill="white"/>
<path d="M306.805 563.961C305.095 564.948 302.322 564.948 300.612 563.961C298.902 562.974 298.902 561.373 300.612 560.386C302.322 559.399 305.095 559.399 306.805 560.386C308.515 561.373 308.515 562.974 306.805 563.961Z" fill="white"/>
<path d="M232.495 606.86C230.785 607.847 228.012 607.847 226.302 606.86C224.592 605.873 224.592 604.272 226.302 603.285C228.012 602.298 230.785 602.298 232.495 603.285C234.205 604.272 234.205 605.873 232.495 606.86Z" fill="white"/>
<path d="M158.185 649.759C156.475 650.746 153.703 650.746 151.993 649.759C150.283 648.772 150.283 647.171 151.993 646.184C153.703 645.197 156.475 645.197 158.185 646.184C159.895 647.171 159.895 648.772 158.185 649.759Z" fill="white"/>
<path d="M83.8751 692.658C82.1651 693.645 79.3926 693.645 77.6826 692.658C75.9726 691.671 75.9726 690.07 77.6826 689.083C79.3926 688.096 82.1651 688.096 83.8751 689.083C85.5851 690.07 85.5851 691.671 83.8751 692.658Z" fill="white"/>
<path d="M529.735 349.465C528.025 350.453 525.252 350.453 523.542 349.465C521.832 348.478 521.832 346.878 523.542 345.89C525.252 344.903 528.025 344.903 529.735 345.89C531.445 346.878 531.445 348.478 529.735 349.465Z" fill="white"/>
<path d="M455.425 392.364C453.715 393.352 450.942 393.352 449.232 392.364C447.522 391.377 447.522 389.777 449.232 388.79C450.942 387.802 453.715 387.802 455.425 388.79C457.135 389.777 457.135 391.377 455.425 392.364Z" fill="white"/>
<path d="M381.115 435.264C379.405 436.251 376.632 436.251 374.922 435.264C373.212 434.276 373.212 432.676 374.922 431.689C376.632 430.701 379.405 430.701 381.115 431.689C382.825 432.676 382.825 434.276 381.115 435.264Z" fill="white"/>
<path d="M306.805 478.163C305.095 479.15 302.322 479.15 300.612 478.163C298.902 477.175 298.902 475.575 300.612 474.588C302.322 473.601 305.095 473.601 306.805 474.588C308.515 475.575 308.515 477.175 306.805 478.163Z" fill="white"/>
<path d="M232.495 521.062C230.785 522.049 228.012 522.049 226.302 521.062C224.592 520.075 224.592 518.474 226.302 517.487C228.012 516.5 230.785 516.5 232.495 517.487C234.205 518.474 234.205 520.075 232.495 521.062Z" fill="white"/>
<path d="M158.185 563.961C156.475 564.948 153.703 564.948 151.993 563.961C150.283 562.974 150.283 561.373 151.993 560.386C153.703 559.399 156.475 559.399 158.185 560.386C159.895 561.373 159.895 562.974 158.185 563.961Z" fill="white"/>
<path d="M83.8751 606.86C82.1651 607.847 79.3926 607.847 77.6826 606.86C75.9726 605.873 75.9726 604.272 77.6826 603.285C79.3926 602.298 82.1651 602.298 83.8751 603.285C85.5851 604.272 85.5851 605.873 83.8751 606.86Z" fill="white"/>
<path d="M9.56521 649.759C7.8552 650.746 5.08273 650.746 3.37272 649.759C1.66271 648.772 1.66271 647.171 3.37272 646.184C5.08273 645.197 7.8552 645.197 9.56521 646.184C11.2752 647.171 11.2752 648.772 9.56521 649.759Z" fill="white"/>
</g>
<g opacity="0.3">
<path d="M1049.9 477.708C1048.19 478.695 1045.42 478.695 1043.71 477.708C1042 476.72 1042 475.12 1043.71 474.133C1045.42 473.146 1048.19 473.146 1049.9 474.133C1051.61 475.12 1051.61 476.721 1049.9 477.708Z" fill="white"/>
<path d="M975.594 520.607C973.884 521.594 971.111 521.594 969.401 520.607C967.691 519.62 967.691 518.019 969.401 517.032C971.111 516.045 973.884 516.045 975.594 517.032C977.304 518.019 977.304 519.62 975.594 520.607Z" fill="white"/>
<path d="M901.284 563.506C899.574 564.493 896.801 564.493 895.091 563.506C893.381 562.519 893.381 560.918 895.091 559.931C896.801 558.944 899.574 558.944 901.284 559.931C902.994 560.918 902.994 562.519 901.284 563.506Z" fill="white"/>
<path d="M826.974 606.405C825.264 607.392 822.492 607.392 820.782 606.405C819.072 605.418 819.072 603.817 820.782 602.83C822.492 601.843 825.264 601.843 826.974 602.83C828.684 603.817 828.684 605.418 826.974 606.405Z" fill="white"/>
<path d="M752.664 649.304C750.954 650.291 748.182 650.291 746.472 649.304C744.762 648.317 744.762 646.716 746.472 645.729C748.182 644.742 750.954 644.742 752.664 645.729C754.374 646.716 754.374 648.317 752.664 649.304Z" fill="white"/>
<path d="M678.354 692.203C676.644 693.19 673.872 693.19 672.162 692.203C670.452 691.216 670.452 689.615 672.162 688.628C673.872 687.641 676.644 687.641 678.354 688.628C680.064 689.615 680.064 691.216 678.354 692.203Z" fill="white"/>
<path d="M604.044 735.102C602.334 736.089 599.562 736.089 597.852 735.102C596.142 734.115 596.142 732.515 597.852 731.527C599.562 730.54 602.334 730.54 604.044 731.527C605.754 732.515 605.754 734.115 604.044 735.102Z" fill="white"/>
<path d="M529.734 778.001C528.024 778.989 525.252 778.989 523.542 778.001C521.832 777.014 521.832 775.414 523.542 774.426C525.252 773.439 528.024 773.439 529.734 774.426C531.444 775.414 531.444 777.014 529.734 778.001Z" fill="white"/>
<path d="M975.594 434.809C973.884 435.796 971.111 435.796 969.401 434.809C967.691 433.821 967.691 432.221 969.401 431.234C971.111 430.246 973.884 430.246 975.594 431.234C977.304 432.221 977.304 433.821 975.594 434.809Z" fill="white"/>
<path d="M901.284 477.708C899.574 478.695 896.801 478.695 895.091 477.708C893.381 476.72 893.381 475.12 895.091 474.133C896.801 473.146 899.574 473.146 901.284 474.133C902.994 475.12 902.994 476.72 901.284 477.708Z" fill="white"/>
<path d="M826.974 520.607C825.264 521.594 822.492 521.594 820.782 520.607C819.072 519.62 819.072 518.019 820.782 517.032C822.492 516.045 825.264 516.045 826.974 517.032C828.684 518.019 828.684 519.62 826.974 520.607Z" fill="white"/>
<path d="M752.664 563.506C750.954 564.493 748.182 564.493 746.472 563.506C744.762 562.519 744.762 560.918 746.472 559.931C748.182 558.944 750.954 558.944 752.664 559.931C754.374 560.918 754.374 562.519 752.664 563.506Z" fill="white"/>
<path d="M678.354 606.405C676.644 607.392 673.872 607.392 672.162 606.405C670.452 605.418 670.452 603.817 672.162 602.83C673.872 601.843 676.644 601.843 678.354 602.83C680.064 603.817 680.064 605.418 678.354 606.405Z" fill="white"/>
<path d="M604.044 649.304C602.334 650.291 599.562 650.291 597.852 649.304C596.142 648.317 596.142 646.716 597.852 645.729C599.562 644.742 602.334 644.742 604.044 645.729C605.754 646.716 605.754 648.317 604.044 649.304Z" fill="white"/>
<path d="M529.734 692.203C528.024 693.19 525.252 693.19 523.542 692.203C521.832 691.216 521.832 689.615 523.542 688.628C525.252 687.641 528.024 687.641 529.734 688.628C531.444 689.615 531.444 691.216 529.734 692.203Z" fill="white"/>
<path d="M455.425 735.102C453.715 736.089 450.942 736.089 449.232 735.102C447.522 734.115 447.522 732.515 449.232 731.527C450.942 730.54 453.715 730.54 455.425 731.527C457.135 732.515 457.135 734.115 455.425 735.102Z" fill="white"/>
<path d="M901.284 391.909C899.574 392.897 896.801 392.897 895.091 391.909C893.381 390.922 893.381 389.322 895.091 388.335C896.801 387.347 899.574 387.347 901.284 388.335C902.994 389.322 902.994 390.922 901.284 391.909Z" fill="white"/>
<path d="M826.974 434.809C825.264 435.796 822.492 435.796 820.782 434.809C819.072 433.821 819.072 432.221 820.782 431.234C822.492 430.246 825.264 430.246 826.974 431.234C828.684 432.221 828.684 433.821 826.974 434.809Z" fill="white"/>
<path d="M752.664 477.708C750.954 478.695 748.182 478.695 746.472 477.708C744.762 476.72 744.762 475.12 746.472 474.133C748.182 473.146 750.954 473.146 752.664 474.133C754.374 475.12 754.374 476.72 752.664 477.708Z" fill="white"/>
<path d="M678.354 520.607C676.644 521.594 673.872 521.594 672.162 520.607C670.452 519.62 670.452 518.019 672.162 517.032C673.872 516.045 676.644 516.045 678.354 517.032C680.064 518.019 680.064 519.62 678.354 520.607Z" fill="white"/>
<path d="M604.044 563.506C602.334 564.493 599.562 564.493 597.852 563.506C596.142 562.519 596.142 560.918 597.852 559.931C599.562 558.944 602.334 558.944 604.044 559.931C605.754 560.918 605.754 562.519 604.044 563.506Z" fill="white"/>
<path d="M529.734 606.405C528.024 607.392 525.252 607.392 523.542 606.405C521.832 605.418 521.832 603.817 523.542 602.83C525.252 601.843 528.024 601.843 529.734 602.83C531.444 603.817 531.444 605.418 529.734 606.405Z" fill="white"/>
<path d="M455.425 649.304C453.715 650.291 450.942 650.291 449.232 649.304C447.522 648.317 447.522 646.716 449.232 645.729C450.942 644.742 453.715 644.742 455.425 645.729C457.135 646.716 457.135 648.317 455.425 649.304Z" fill="white"/>
<path d="M381.115 692.203C379.405 693.19 376.632 693.19 374.922 692.203C373.212 691.216 373.212 689.615 374.922 688.628C376.632 687.641 379.405 687.641 381.115 688.628C382.825 689.615 382.825 691.216 381.115 692.203Z" fill="white"/>
<path d="M826.974 349.01C825.264 349.998 822.492 349.998 820.782 349.01C819.072 348.023 819.072 346.423 820.782 345.435C822.492 344.448 825.264 344.448 826.974 345.435C828.684 346.423 828.684 348.023 826.974 349.01Z" fill="white"/>
<path d="M752.664 391.909C750.954 392.897 748.182 392.897 746.472 391.909C744.762 390.922 744.762 389.322 746.472 388.335C748.182 387.347 750.954 387.347 752.664 388.335C754.374 389.322 754.374 390.922 752.664 391.909Z" fill="white"/>
<path d="M678.354 434.809C676.644 435.796 673.872 435.796 672.162 434.809C670.452 433.821 670.452 432.221 672.162 431.234C673.872 430.246 676.644 430.246 678.354 431.234C680.064 432.221 680.064 433.821 678.354 434.809Z" fill="white"/>
<path d="M604.044 477.708C602.334 478.695 599.562 478.695 597.852 477.708C596.142 476.72 596.142 475.12 597.852 474.133C599.562 473.146 602.334 473.146 604.044 474.133C605.754 475.12 605.754 476.72 604.044 477.708Z" fill="white"/>
<path d="M529.734 520.607C528.024 521.594 525.252 521.594 523.542 520.607C521.832 519.62 521.832 518.019 523.542 517.032C525.252 516.045 528.024 516.045 529.734 517.032C531.444 518.019 531.444 519.62 529.734 520.607Z" fill="white"/>
<path d="M455.425 563.506C453.715 564.493 450.942 564.493 449.232 563.506C447.522 562.519 447.522 560.918 449.232 559.931C450.942 558.944 453.715 558.944 455.425 559.931C457.135 560.918 457.135 562.519 455.425 563.506Z" fill="white"/>
<path d="M381.115 606.405C379.405 607.392 376.632 607.392 374.922 606.405C373.212 605.418 373.212 603.817 374.922 602.83C376.632 601.843 379.405 601.843 381.115 602.83C382.825 603.817 382.825 605.418 381.115 606.405Z" fill="white"/>
<path d="M306.805 649.304C305.095 650.291 302.322 650.291 300.612 649.304C298.902 648.317 298.902 646.716 300.612 645.729C302.322 644.742 305.095 644.742 306.805 645.729C308.515 646.716 308.515 648.317 306.805 649.304Z" fill="white"/>
<path d="M752.664 306.111C750.954 307.098 748.182 307.098 746.472 306.111C744.762 305.124 744.762 303.523 746.472 302.536C748.182 301.549 750.954 301.549 752.664 302.536C754.374 303.523 754.374 305.124 752.664 306.111Z" fill="white"/>
<path d="M678.354 349.01C676.644 349.998 673.872 349.998 672.162 349.01C670.452 348.023 670.452 346.423 672.162 345.435C673.872 344.448 676.644 344.448 678.354 345.435C680.064 346.423 680.064 348.023 678.354 349.01Z" fill="white"/>
<path d="M604.044 391.909C602.334 392.897 599.562 392.897 597.852 391.909C596.142 390.922 596.142 389.322 597.852 388.334C599.562 387.347 602.334 387.347 604.044 388.334C605.754 389.322 605.754 390.922 604.044 391.909Z" fill="white"/>
<path d="M529.734 434.809C528.024 435.796 525.252 435.796 523.542 434.809C521.832 433.821 521.832 432.221 523.542 431.234C525.252 430.246 528.024 430.246 529.734 431.234C531.444 432.221 531.444 433.821 529.734 434.809Z" fill="white"/>
<path d="M455.425 477.708C453.715 478.695 450.942 478.695 449.232 477.708C447.522 476.72 447.522 475.12 449.232 474.133C450.942 473.145 453.715 473.145 455.425 474.133C457.135 475.12 457.135 476.72 455.425 477.708Z" fill="white"/>
<path d="M381.115 520.607C379.405 521.594 376.632 521.594 374.922 520.607C373.212 519.62 373.212 518.019 374.922 517.032C376.632 516.045 379.405 516.045 381.115 517.032C382.825 518.019 382.825 519.62 381.115 520.607Z" fill="white"/>
<path d="M306.805 563.506C305.095 564.493 302.322 564.493 300.612 563.506C298.902 562.519 298.902 560.918 300.612 559.931C302.322 558.944 305.095 558.944 306.805 559.931C308.515 560.918 308.515 562.519 306.805 563.506Z" fill="white"/>
<path d="M232.495 606.405C230.785 607.392 228.012 607.392 226.302 606.405C224.592 605.418 224.592 603.817 226.302 602.83C228.012 601.843 230.785 601.843 232.495 602.83C234.205 603.817 234.205 605.418 232.495 606.405Z" fill="white"/>
<path d="M678.354 263.212C676.644 264.199 673.872 264.199 672.162 263.212C670.452 262.225 670.452 260.624 672.162 259.637C673.872 258.65 676.644 258.65 678.354 259.637C680.064 260.624 680.064 262.225 678.354 263.212Z" fill="white"/>
<path d="M604.044 306.111C602.334 307.098 599.562 307.098 597.852 306.111C596.142 305.124 596.142 303.523 597.852 302.536C599.562 301.549 602.334 301.549 604.044 302.536C605.754 303.523 605.754 305.124 604.044 306.111Z" fill="white"/>
<path d="M529.734 349.01C528.024 349.997 525.252 349.997 523.542 349.01C521.832 348.023 521.832 346.423 523.542 345.435C525.252 344.448 528.024 344.448 529.734 345.435C531.445 346.423 531.445 348.023 529.734 349.01Z" fill="white"/>
<path d="M455.425 391.909C453.715 392.897 450.942 392.897 449.232 391.909C447.522 390.922 447.522 389.322 449.232 388.334C450.942 387.347 453.715 387.347 455.425 388.334C457.135 389.322 457.135 390.922 455.425 391.909Z" fill="white"/>
<path d="M381.115 434.808C379.405 435.796 376.632 435.796 374.922 434.808C373.212 433.821 373.212 432.221 374.922 431.234C376.632 430.246 379.405 430.246 381.115 431.234C382.825 432.221 382.825 433.821 381.115 434.808Z" fill="white"/>
<path d="M306.805 477.708C305.095 478.695 302.322 478.695 300.612 477.708C298.902 476.72 298.902 475.12 300.612 474.133C302.322 473.145 305.095 473.145 306.805 474.133C308.515 475.12 308.515 476.72 306.805 477.708Z" fill="white"/>
<path d="M232.495 520.607C230.785 521.594 228.012 521.594 226.302 520.607C224.592 519.619 224.592 518.019 226.302 517.032C228.012 516.045 230.785 516.045 232.495 517.032C234.205 518.019 234.205 519.619 232.495 520.607Z" fill="white"/>
<path d="M158.185 563.506C156.475 564.493 153.703 564.493 151.993 563.506C150.282 562.519 150.282 560.918 151.993 559.931C153.703 558.944 156.475 558.944 158.185 559.931C159.895 560.918 159.895 562.519 158.185 563.506Z" fill="white"/>
<path d="M604.044 220.313C602.334 221.3 599.562 221.3 597.852 220.313C596.142 219.326 596.142 217.725 597.852 216.738C599.562 215.751 602.334 215.751 604.044 216.738C605.754 217.725 605.754 219.326 604.044 220.313Z" fill="white"/>
<path d="M529.735 263.212C528.024 264.199 525.252 264.199 523.542 263.212C521.832 262.225 521.832 260.624 523.542 259.637C525.252 258.65 528.024 258.65 529.735 259.637C531.445 260.624 531.445 262.225 529.735 263.212Z" fill="white"/>
<path d="M455.425 306.111C453.715 307.098 450.942 307.098 449.232 306.111C447.522 305.124 447.522 303.523 449.232 302.536C450.942 301.549 453.715 301.549 455.425 302.536C457.135 303.523 457.135 305.124 455.425 306.111Z" fill="white"/>
<path d="M381.115 349.01C379.405 349.997 376.632 349.997 374.922 349.01C373.212 348.023 373.212 346.423 374.922 345.435C376.632 344.448 379.405 344.448 381.115 345.435C382.825 346.423 382.825 348.023 381.115 349.01Z" fill="white"/>
<path d="M306.805 391.909C305.095 392.897 302.322 392.897 300.612 391.909C298.902 390.922 298.902 389.322 300.612 388.334C302.322 387.347 305.095 387.347 306.805 388.334C308.515 389.322 308.515 390.922 306.805 391.909Z" fill="white"/>
<path d="M232.495 434.808C230.785 435.796 228.012 435.796 226.302 434.808C224.592 433.821 224.592 432.221 226.302 431.234C228.012 430.246 230.785 430.246 232.495 431.234C234.205 432.221 234.205 433.821 232.495 434.808Z" fill="white"/>
<path d="M158.185 477.708C156.475 478.695 153.703 478.695 151.993 477.708C150.283 476.72 150.283 475.12 151.993 474.133C153.703 473.145 156.475 473.145 158.185 474.133C159.895 475.12 159.895 476.72 158.185 477.708Z" fill="white"/>
<path d="M83.8751 520.607C82.1651 521.594 79.3926 521.594 77.6826 520.607C75.9726 519.619 75.9726 518.019 77.6826 517.032C79.3926 516.045 82.1651 516.045 83.8751 517.032C85.5851 518.019 85.5851 519.619 83.8751 520.607Z" fill="white"/>
<path d="M529.735 177.414C528.025 178.401 525.252 178.401 523.542 177.414C521.832 176.427 521.832 174.826 523.542 173.839C525.252 172.852 528.025 172.852 529.735 173.839C531.445 174.826 531.445 176.427 529.735 177.414Z" fill="white"/>
<path d="M455.425 220.313C453.715 221.3 450.942 221.3 449.232 220.313C447.522 219.326 447.522 217.725 449.232 216.738C450.942 215.751 453.715 215.751 455.425 216.738C457.135 217.725 457.135 219.326 455.425 220.313Z" fill="white"/>
<path d="M381.115 263.212C379.405 264.199 376.632 264.199 374.922 263.212C373.212 262.225 373.212 260.624 374.922 259.637C376.632 258.65 379.405 258.65 381.115 259.637C382.825 260.624 382.825 262.225 381.115 263.212Z" fill="white"/>
<path d="M306.805 306.111C305.095 307.098 302.322 307.098 300.612 306.111C298.902 305.124 298.902 303.523 300.612 302.536C302.322 301.549 305.095 301.549 306.805 302.536C308.515 303.523 308.515 305.124 306.805 306.111Z" fill="white"/>
<path d="M232.495 349.01C230.785 349.997 228.012 349.997 226.302 349.01C224.592 348.023 224.592 346.423 226.302 345.435C228.012 344.448 230.785 344.448 232.495 345.435C234.205 346.423 234.205 348.023 232.495 349.01Z" fill="white"/>
<path d="M158.185 391.909C156.475 392.897 153.703 392.897 151.993 391.909C150.283 390.922 150.283 389.322 151.993 388.334C153.703 387.347 156.475 387.347 158.185 388.334C159.895 389.322 159.895 390.922 158.185 391.909Z" fill="white"/>
<path d="M83.8751 434.808C82.1651 435.796 79.3926 435.796 77.6826 434.808C75.9726 433.821 75.9726 432.221 77.6826 431.234C79.3926 430.246 82.1651 430.246 83.8751 431.234C85.5851 432.221 85.5851 433.821 83.8751 434.808Z" fill="white"/>
<path d="M9.56521 477.708C7.8552 478.695 5.08273 478.695 3.37272 477.708C1.66271 476.72 1.66271 475.12 3.37272 474.133C5.08273 473.145 7.8552 473.145 9.56521 474.133C11.2752 475.12 11.2752 476.72 9.56521 477.708Z" fill="white"/>
</g>
<g opacity="0.1">
<path d="M1049.9 305.656C1048.19 306.643 1045.42 306.643 1043.71 305.656C1042 304.669 1042 303.068 1043.71 302.081C1045.42 301.094 1048.19 301.094 1049.9 302.081C1051.61 303.068 1051.61 304.669 1049.9 305.656Z" fill="white"/>
<path d="M975.594 348.555C973.884 349.543 971.111 349.543 969.401 348.555C967.691 347.568 967.691 345.968 969.401 344.98C971.111 343.993 973.884 343.993 975.594 344.98C977.304 345.968 977.304 347.568 975.594 348.555Z" fill="white"/>
<path d="M901.284 391.454C899.574 392.442 896.802 392.442 895.092 391.454C893.382 390.467 893.382 388.867 895.092 387.88C896.802 386.892 899.574 386.892 901.284 387.88C902.994 388.867 902.994 390.467 901.284 391.454Z" fill="white"/>
<path d="M826.974 434.354C825.264 435.341 822.492 435.341 820.782 434.354C819.072 433.366 819.072 431.766 820.782 430.779C822.492 429.791 825.264 429.791 826.974 430.779C828.684 431.766 828.684 433.366 826.974 434.354Z" fill="white"/>
<path d="M752.664 477.253C750.954 478.24 748.182 478.24 746.472 477.253C744.762 476.265 744.762 474.665 746.472 473.678C748.182 472.691 750.954 472.691 752.664 473.678C754.374 474.665 754.374 476.265 752.664 477.253Z" fill="white"/>
<path d="M678.354 520.152C676.644 521.139 673.872 521.139 672.162 520.152C670.452 519.165 670.452 517.564 672.162 516.577C673.872 515.59 676.644 515.59 678.354 516.577C680.064 517.564 680.064 519.165 678.354 520.152Z" fill="white"/>
<path d="M604.044 563.051C602.334 564.038 599.562 564.038 597.852 563.051C596.142 562.064 596.142 560.463 597.852 559.476C599.562 558.489 602.334 558.489 604.044 559.476C605.754 560.463 605.754 562.064 604.044 563.051Z" fill="white"/>
<path d="M529.735 605.95C528.024 606.937 525.252 606.937 523.542 605.95C521.832 604.963 521.832 603.362 523.542 602.375C525.252 601.388 528.024 601.388 529.735 602.375C531.445 603.362 531.445 604.963 529.735 605.95Z" fill="white"/>
<path d="M975.594 262.757C973.884 263.744 971.111 263.744 969.401 262.757C967.691 261.77 967.691 260.169 969.401 259.182C971.111 258.195 973.884 258.195 975.594 259.182C977.304 260.169 977.304 261.77 975.594 262.757Z" fill="white"/>
<path d="M901.284 305.656C899.574 306.643 896.802 306.643 895.092 305.656C893.382 304.669 893.382 303.068 895.092 302.081C896.802 301.094 899.574 301.094 901.284 302.081C902.994 303.068 902.994 304.669 901.284 305.656Z" fill="white"/>
<path d="M826.974 348.555C825.264 349.542 822.492 349.542 820.782 348.555C819.072 347.568 819.072 345.968 820.782 344.98C822.492 343.993 825.264 343.993 826.974 344.98C828.684 345.968 828.684 347.568 826.974 348.555Z" fill="white"/>
<path d="M752.664 391.454C750.954 392.442 748.182 392.442 746.472 391.454C744.762 390.467 744.762 388.867 746.472 387.879C748.182 386.892 750.954 386.892 752.664 387.879C754.374 388.867 754.374 390.467 752.664 391.454Z" fill="white"/>
<path d="M678.354 434.354C676.644 435.341 673.872 435.341 672.162 434.354C670.452 433.366 670.452 431.766 672.162 430.779C673.872 429.791 676.644 429.791 678.354 430.779C680.064 431.766 680.064 433.366 678.354 434.354Z" fill="white"/>
<path d="M604.044 477.253C602.334 478.24 599.562 478.24 597.852 477.253C596.142 476.265 596.142 474.665 597.852 473.678C599.562 472.69 602.334 472.69 604.044 473.678C605.754 474.665 605.754 476.265 604.044 477.253Z" fill="white"/>
<path d="M529.735 520.152C528.025 521.139 525.252 521.139 523.542 520.152C521.832 519.165 521.832 517.564 523.542 516.577C525.252 515.59 528.025 515.59 529.735 516.577C531.445 517.564 531.445 519.165 529.735 520.152Z" fill="white"/>
<path d="M455.425 563.051C453.715 564.038 450.942 564.038 449.232 563.051C447.522 562.064 447.522 560.463 449.232 559.476C450.942 558.489 453.715 558.489 455.425 559.476C457.135 560.463 457.135 562.064 455.425 563.051Z" fill="white"/>
<path d="M901.284 219.858C899.574 220.845 896.802 220.845 895.092 219.858C893.382 218.871 893.382 217.27 895.092 216.283C896.802 215.296 899.574 215.296 901.284 216.283C902.994 217.27 902.994 218.871 901.284 219.858Z" fill="white"/>
<path d="M826.974 262.757C825.264 263.744 822.492 263.744 820.782 262.757C819.072 261.77 819.072 260.169 820.782 259.182C822.492 258.195 825.264 258.195 826.974 259.182C828.684 260.169 828.684 261.77 826.974 262.757Z" fill="white"/>
<path d="M752.664 305.656C750.954 306.643 748.182 306.643 746.472 305.656C744.762 304.669 744.762 303.068 746.472 302.081C748.182 301.094 750.954 301.094 752.664 302.081C754.374 303.068 754.374 304.669 752.664 305.656Z" fill="white"/>
<path d="M678.354 348.555C676.644 349.542 673.872 349.542 672.162 348.555C670.452 347.568 670.452 345.968 672.162 344.98C673.872 343.993 676.644 343.993 678.354 344.98C680.064 345.968 680.064 347.568 678.354 348.555Z" fill="white"/>
<path d="M604.044 391.454C602.334 392.442 599.562 392.442 597.852 391.454C596.142 390.467 596.142 388.867 597.852 387.879C599.562 386.892 602.334 386.892 604.044 387.879C605.754 388.867 605.754 390.467 604.044 391.454Z" fill="white"/>
<path d="M529.735 434.353C528.025 435.341 525.252 435.341 523.542 434.353C521.832 433.366 521.832 431.766 523.542 430.779C525.252 429.791 528.025 429.791 529.735 430.779C531.445 431.766 531.445 433.366 529.735 434.353Z" fill="white"/>
<path d="M455.425 477.253C453.715 478.24 450.942 478.24 449.232 477.253C447.522 476.265 447.522 474.665 449.232 473.678C450.942 472.69 453.715 472.69 455.425 473.678C457.135 474.665 457.135 476.265 455.425 477.253Z" fill="white"/>
<path d="M381.115 520.152C379.405 521.139 376.632 521.139 374.922 520.152C373.212 519.164 373.212 517.564 374.922 516.577C376.632 515.59 379.405 515.59 381.115 516.577C382.825 517.564 382.825 519.164 381.115 520.152Z" fill="white"/>
<path d="M826.974 176.959C825.264 177.946 822.492 177.946 820.782 176.959C819.072 175.972 819.072 174.371 820.782 173.384C822.492 172.397 825.264 172.397 826.974 173.384C828.684 174.371 828.684 175.972 826.974 176.959Z" fill="white"/>
<path d="M752.664 219.858C750.954 220.845 748.182 220.845 746.472 219.858C744.762 218.871 744.762 217.27 746.472 216.283C748.182 215.296 750.954 215.296 752.664 216.283C754.374 217.27 754.374 218.871 752.664 219.858Z" fill="white"/>
<path d="M678.354 262.757C676.644 263.744 673.872 263.744 672.162 262.757C670.452 261.77 670.452 260.169 672.162 259.182C673.872 258.195 676.644 258.195 678.354 259.182C680.064 260.169 680.064 261.77 678.354 262.757Z" fill="white"/>
<path d="M604.044 305.656C602.334 306.643 599.562 306.643 597.852 305.656C596.142 304.669 596.142 303.068 597.852 302.081C599.562 301.094 602.334 301.094 604.044 302.081C605.754 303.068 605.754 304.669 604.044 305.656Z" fill="white"/>
<path d="M529.735 348.555C528.025 349.542 525.252 349.542 523.542 348.555C521.832 347.568 521.832 345.968 523.542 344.98C525.252 343.993 528.025 343.993 529.735 344.98C531.445 345.968 531.445 347.568 529.735 348.555Z" fill="white"/>
<path d="M455.425 391.454C453.715 392.442 450.942 392.442 449.232 391.454C447.522 390.467 447.522 388.867 449.232 387.879C450.942 386.892 453.715 386.892 455.425 387.879C457.135 388.867 457.135 390.467 455.425 391.454Z" fill="white"/>
<path d="M381.115 434.353C379.405 435.341 376.632 435.341 374.922 434.353C373.212 433.366 373.212 431.766 374.922 430.779C376.632 429.791 379.405 429.791 381.115 430.779C382.825 431.766 382.825 433.366 381.115 434.353Z" fill="white"/>
<path d="M306.805 477.253C305.095 478.24 302.322 478.24 300.612 477.253C298.902 476.265 298.902 474.665 300.612 473.678C302.322 472.69 305.095 472.69 306.805 473.678C308.515 474.665 308.515 476.265 306.805 477.253Z" fill="white"/>
<path d="M752.664 134.06C750.954 135.047 748.182 135.047 746.472 134.06C744.762 133.073 744.762 131.472 746.472 130.485C748.182 129.498 750.954 129.498 752.664 130.485C754.374 131.472 754.374 133.073 752.664 134.06Z" fill="white"/>
<path d="M678.354 176.959C676.644 177.946 673.872 177.946 672.162 176.959C670.452 175.972 670.452 174.371 672.162 173.384C673.872 172.397 676.644 172.397 678.354 173.384C680.064 174.371 680.064 175.972 678.354 176.959Z" fill="white"/>
<path d="M604.044 219.858C602.334 220.845 599.562 220.845 597.852 219.858C596.142 218.871 596.142 217.27 597.852 216.283C599.562 215.296 602.334 215.296 604.044 216.283C605.754 217.27 605.754 218.871 604.044 219.858Z" fill="white"/>
<path d="M529.735 262.757C528.025 263.744 525.252 263.744 523.542 262.757C521.832 261.77 521.832 260.169 523.542 259.182C525.252 258.195 528.025 258.195 529.735 259.182C531.445 260.169 531.445 261.77 529.735 262.757Z" fill="white"/>
<path d="M455.425 305.656C453.715 306.643 450.942 306.643 449.232 305.656C447.522 304.669 447.522 303.068 449.232 302.081C450.942 301.094 453.715 301.094 455.425 302.081C457.135 303.068 457.135 304.669 455.425 305.656Z" fill="white"/>
<path d="M381.115 348.555C379.405 349.542 376.632 349.542 374.922 348.555C373.212 347.568 373.212 345.968 374.922 344.98C376.632 343.993 379.405 343.993 381.115 344.98C382.825 345.968 382.825 347.568 381.115 348.555Z" fill="white"/>
<path d="M306.805 391.454C305.095 392.442 302.322 392.442 300.612 391.454C298.902 390.467 298.902 388.867 300.612 387.879C302.322 386.892 305.095 386.892 306.805 387.879C308.515 388.867 308.515 390.467 306.805 391.454Z" fill="white"/>
<path d="M232.495 434.353C230.785 435.341 228.012 435.341 226.302 434.353C224.592 433.366 224.592 431.766 226.302 430.779C228.012 429.791 230.785 429.791 232.495 430.779C234.205 431.766 234.205 433.366 232.495 434.353Z" fill="white"/>
<path d="M678.354 91.1607C676.644 92.1478 673.872 92.1478 672.162 91.1607C670.452 90.1735 670.452 88.5729 672.162 87.5857C673.872 86.5985 676.644 86.5985 678.354 87.5857C680.064 88.5729 680.064 90.1735 678.354 91.1607Z" fill="white"/>
<path d="M604.044 134.06C602.334 135.047 599.562 135.047 597.852 134.06C596.142 133.073 596.142 131.472 597.852 130.485C599.562 129.498 602.334 129.498 604.044 130.485C605.754 131.472 605.754 133.073 604.044 134.06Z" fill="white"/>
<path d="M529.735 176.959C528.025 177.946 525.252 177.946 523.542 176.959C521.832 175.972 521.832 174.371 523.542 173.384C525.252 172.397 528.025 172.397 529.735 173.384C531.445 174.371 531.445 175.972 529.735 176.959Z" fill="white"/>
<path d="M455.425 219.858C453.715 220.845 450.942 220.845 449.232 219.858C447.522 218.871 447.522 217.27 449.232 216.283C450.942 215.296 453.715 215.296 455.425 216.283C457.135 217.27 457.135 218.871 455.425 219.858Z" fill="white"/>
<path d="M381.115 262.757C379.405 263.744 376.632 263.744 374.922 262.757C373.212 261.77 373.212 260.169 374.922 259.182C376.632 258.195 379.405 258.195 381.115 259.182C382.825 260.169 382.825 261.77 381.115 262.757Z" fill="white"/>
<path d="M306.805 305.656C305.095 306.643 302.322 306.643 300.612 305.656C298.902 304.669 298.902 303.068 300.612 302.081C302.322 301.094 305.095 301.094 306.805 302.081C308.515 303.068 308.515 304.669 306.805 305.656Z" fill="white"/>
<path d="M232.495 348.555C230.785 349.542 228.012 349.542 226.302 348.555C224.592 347.568 224.592 345.967 226.302 344.98C228.012 343.993 230.785 343.993 232.495 344.98C234.205 345.967 234.205 347.568 232.495 348.555Z" fill="white"/>
<path d="M158.185 391.454C156.475 392.442 153.703 392.442 151.993 391.454C150.283 390.467 150.283 388.867 151.993 387.879C153.703 386.892 156.475 386.892 158.185 387.879C159.895 388.867 159.895 390.467 158.185 391.454Z" fill="white"/>
<path d="M604.044 48.2615C602.334 49.2487 599.562 49.2487 597.852 48.2615C596.142 47.2744 596.142 45.6738 597.852 44.6866C599.562 43.6994 602.334 43.6994 604.044 44.6866C605.754 45.6738 605.754 47.2744 604.044 48.2615Z" fill="white"/>
<path d="M529.735 91.1606C528.025 92.1478 525.252 92.1478 523.542 91.1606C521.832 90.1734 521.832 88.5729 523.542 87.5857C525.252 86.5985 528.025 86.5985 529.735 87.5857C531.445 88.5729 531.445 90.1734 529.735 91.1606Z" fill="white"/>
<path d="M455.425 134.06C453.715 135.047 450.942 135.047 449.232 134.06C447.522 133.073 447.522 131.472 449.232 130.485C450.942 129.498 453.715 129.498 455.425 130.485C457.135 131.472 457.135 133.073 455.425 134.06Z" fill="white"/>
<path d="M381.115 176.959C379.405 177.946 376.632 177.946 374.922 176.959C373.212 175.972 373.212 174.371 374.922 173.384C376.632 172.397 379.405 172.397 381.115 173.384C382.825 174.371 382.825 175.972 381.115 176.959Z" fill="white"/>
<path d="M306.805 219.858C305.095 220.845 302.322 220.845 300.612 219.858C298.902 218.871 298.902 217.27 300.612 216.283C302.322 215.296 305.095 215.296 306.805 216.283C308.515 217.27 308.515 218.871 306.805 219.858Z" fill="white"/>
<path d="M232.495 262.757C230.785 263.744 228.012 263.744 226.302 262.757C224.592 261.77 224.592 260.169 226.302 259.182C228.012 258.195 230.785 258.195 232.495 259.182C234.205 260.169 234.205 261.77 232.495 262.757Z" fill="white"/>
<path d="M158.185 305.656C156.475 306.643 153.703 306.643 151.993 305.656C150.283 304.669 150.283 303.068 151.993 302.081C153.703 301.094 156.475 301.094 158.185 302.081C159.895 303.068 159.895 304.669 158.185 305.656Z" fill="white"/>
<path d="M83.8752 348.555C82.1652 349.542 79.3927 349.542 77.6827 348.555C75.9727 347.568 75.9727 345.967 77.6827 344.98C79.3927 343.993 82.1652 343.993 83.8752 344.98C85.5852 345.967 85.5852 347.568 83.8752 348.555Z" fill="white"/>
<path d="M529.735 5.36243C528.025 6.34961 525.252 6.34961 523.542 5.36242C521.832 4.37524 521.832 2.77469 523.542 1.7875C525.252 0.800311 528.025 0.800312 529.735 1.7875C531.445 2.77469 531.445 4.37524 529.735 5.36243Z" fill="white"/>
<path d="M455.425 48.2615C453.715 49.2487 450.942 49.2487 449.232 48.2615C447.522 47.2743 447.522 45.6738 449.232 44.6866C450.942 43.6994 453.715 43.6994 455.425 44.6866C457.135 45.6738 457.135 47.2743 455.425 48.2615Z" fill="white"/>
<path d="M381.115 91.1606C379.405 92.1478 376.632 92.1478 374.922 91.1606C373.212 90.1734 373.212 88.5729 374.922 87.5857C376.632 86.5985 379.405 86.5985 381.115 87.5857C382.825 88.5729 382.825 90.1734 381.115 91.1606Z" fill="white"/>
<path d="M306.805 134.06C305.095 135.047 302.322 135.047 300.612 134.06C298.902 133.073 298.902 131.472 300.612 130.485C302.322 129.498 305.095 129.498 306.805 130.485C308.515 131.472 308.515 133.073 306.805 134.06Z" fill="white"/>
<path d="M232.495 176.959C230.785 177.946 228.012 177.946 226.302 176.959C224.592 175.972 224.592 174.371 226.302 173.384C228.012 172.397 230.785 172.397 232.495 173.384C234.205 174.371 234.205 175.972 232.495 176.959Z" fill="white"/>
<path d="M158.185 219.858C156.475 220.845 153.703 220.845 151.993 219.858C150.283 218.871 150.283 217.27 151.993 216.283C153.703 215.296 156.475 215.296 158.185 216.283C159.895 217.27 159.895 218.871 158.185 219.858Z" fill="white"/>
<path d="M83.8752 262.757C82.1652 263.744 79.3927 263.744 77.6827 262.757C75.9727 261.77 75.9727 260.169 77.6827 259.182C79.3927 258.195 82.1652 258.195 83.8752 259.182C85.5852 260.169 85.5852 261.77 83.8752 262.757Z" fill="white"/>
<path d="M9.56527 305.656C7.85526 306.643 5.08279 306.643 3.37278 305.656C1.66277 304.669 1.66277 303.068 3.37278 302.081C5.08279 301.094 7.85526 301.094 9.56527 302.081C11.2753 303.068 11.2753 304.669 9.56527 305.656Z" fill="white"/>
</g>
</svg>
