<svg width="217" height="34" viewBox="0 0 217 34" fill="none" xmlns="http://www.w3.org/2000/svg">
<path fill-rule="evenodd" clip-rule="evenodd" d="M0 15.8082C0 7.77868 7.10304 2.52861 14.2061 2.52861C16.9667 2.52861 19.4465 2.89867 21.8392 3.85576L24.2755 0.897461L30.0616 10.4249L28.7999 11.4255L28.7596 11.3773C27.1656 9.47271 23.1631 4.6904 16.059 4.6904C13.5884 4.6904 9.26484 5.61689 9.26484 8.08751C9.26484 10.5156 14.0375 10.8557 18.306 11.1598C18.3807 11.1652 18.4553 11.1705 18.5297 11.1758C22.8533 11.4846 32.7358 12.4111 32.7358 19.5141C32.7358 26.3084 26.2504 33.1026 16.059 33.1026C10.6237 33.1026 5.5589 29.3966 3.70593 27.5437L4.94125 26.3084C6.58833 27.9554 11.1178 31.2496 16.059 31.2496C22.2356 31.2496 23.7797 28.779 23.7797 27.5437C23.7797 26.3084 22.5444 25.073 16.059 25.073C9.57366 25.073 0 24.1466 0 15.8082ZM24.6076 4.35578L24.2755 3.33371L23.9434 4.35578H22.8687L23.7382 4.98745L23.4061 6.00952L24.2755 5.37785L25.1449 6.00952L24.8128 4.98745L25.6822 4.35578H24.6076Z" fill="white"/>
<path d="M206.373 27.6751C204.344 27.6751 202.468 27.4497 200.745 26.9989C199.034 26.548 197.562 25.8764 196.327 24.9839C195.093 24.0915 194.134 22.9782 193.449 21.6441C192.777 20.31 192.441 18.7689 192.441 17.0207C192.441 15.3922 192.765 13.9155 193.413 12.5906C194.06 11.2657 195.001 10.1294 196.236 9.18176C197.421 8.2709 198.888 7.56704 200.635 7.07021C202.395 6.57337 204.314 6.32495 206.391 6.32495C207.54 6.32495 208.572 6.37555 209.489 6.47676C210.418 6.56877 211.273 6.69298 212.055 6.84939C212.874 7.0242 213.613 7.22202 214.273 7.44283C214.945 7.65445 215.532 7.85226 216.033 8.03628V13.0184H215.227C214.884 12.7976 214.451 12.5354 213.925 12.2318C213.412 11.9282 212.825 11.6291 212.165 11.3347C211.493 11.0403 210.766 10.7919 209.984 10.5895C209.202 10.3871 208.365 10.2858 207.473 10.2858C206.483 10.2858 205.542 10.4055 204.65 10.6447C203.757 10.8747 202.933 11.2611 202.175 11.804C201.454 12.3284 200.867 13.023 200.415 13.8879C199.975 14.7528 199.755 15.8017 199.755 17.0345C199.755 18.3226 199.994 19.3991 200.47 20.264C200.959 21.1288 201.57 21.8097 202.303 22.3065C203.049 22.8126 203.88 23.176 204.796 23.3968C205.713 23.6084 206.617 23.7142 207.509 23.7142C208.365 23.7142 209.208 23.6176 210.039 23.4244C210.882 23.2312 211.658 22.969 212.367 22.6378C212.966 22.3709 213.522 22.0857 214.035 21.7821C214.548 21.4785 214.97 21.2163 215.3 20.9954H216.033V25.9086C215.349 26.1386 214.695 26.3548 214.072 26.5572C213.448 26.7597 212.795 26.9345 212.11 27.0817C211.218 27.2749 210.381 27.4221 209.599 27.5233C208.817 27.6245 207.741 27.6751 206.373 27.6751Z" fill="white"/>
<path d="M189.636 6.72516L179.701 23.1622C179.126 24.1098 178.466 24.8735 177.721 25.4531C176.975 26.0328 176.205 26.4606 175.411 26.7366C174.617 27.0219 173.829 27.2059 173.046 27.2887C172.276 27.3715 171.507 27.4129 170.737 27.4129C169.881 27.4129 168.867 27.3945 167.694 27.3577C166.521 27.3301 165.745 27.3025 165.366 27.2749V22.7895H165.787C166.044 22.8447 166.496 22.9046 167.144 22.969C167.792 23.0242 168.433 23.0518 169.069 23.0518C170.278 23.0518 171.256 22.9644 172.002 22.7895C172.759 22.6147 173.224 22.3847 173.395 22.0995L162.304 6.72516H169.948L176.731 16.4687L182.322 6.72516H189.636Z" fill="white"/>
<path d="M157.997 27.2749H151.141V13.5981L139.813 27.2749H133.104V6.72516H139.959V19.1047L150.5 6.72516H157.997V27.2749Z" fill="white"/>
<path d="M127.347 13.2116C127.347 14.1317 127.134 15.0334 126.706 15.9166C126.278 16.7907 125.667 17.5268 124.873 18.1248C123.785 18.9345 122.569 19.5463 121.225 19.9603C119.893 20.3744 118.231 20.5814 116.239 20.5814H111.858V27.2749H104.819V6.72516H116.404C118.139 6.72516 119.6 6.84017 120.785 7.07018C121.983 7.291 123.04 7.62683 123.956 8.07766C125.056 8.6205 125.893 9.31515 126.468 10.1616C127.054 11.0081 127.347 12.0248 127.347 13.2116ZM120.07 13.3358C120.07 12.7562 119.862 12.2594 119.447 11.8453C119.031 11.4221 118.549 11.1277 117.999 10.9621C117.265 10.7413 116.551 10.6216 115.854 10.6032C115.157 10.5756 114.229 10.5618 113.068 10.5618H111.858V16.7171H113.874C115.072 16.7171 116.056 16.6619 116.825 16.5515C117.608 16.4411 118.261 16.2203 118.787 15.889C119.239 15.5946 119.563 15.245 119.758 14.8402C119.966 14.4261 120.07 13.9247 120.07 13.3358Z" fill="white"/>
<path d="M97.2145 27.2749H90.3587V13.5981L79.0302 27.2749H72.321V6.72516H79.1768V19.1047L89.7171 6.72516H97.2145V27.2749Z" fill="white"/>
<path d="M56.7399 27.6751C54.7112 27.6751 52.8354 27.4497 51.1123 26.9989C49.4014 26.548 47.9288 25.8764 46.6945 24.9839C45.4602 24.0915 44.5009 22.9782 43.8166 21.6441C43.1444 20.31 42.8083 18.7689 42.8083 17.0207C42.8083 15.3922 43.1322 13.9155 43.7799 12.5906C44.4276 11.2657 45.3686 10.1294 46.6029 9.18176C47.7883 8.2709 49.2547 7.56704 51.0023 7.07021C52.7621 6.57337 54.6807 6.32495 56.7582 6.32495C57.9069 6.32495 58.9396 6.37555 59.8561 6.47676C60.7849 6.56877 61.6403 6.69298 62.4225 6.84939C63.2412 7.0242 63.9806 7.22202 64.6405 7.44283C65.3126 7.65445 65.8992 7.85226 66.4003 8.03628V13.0184H65.5937C65.2515 12.7976 64.8177 12.5354 64.2922 12.2318C63.779 11.9282 63.1924 11.6291 62.5324 11.3347C61.8603 11.0403 61.1332 10.7919 60.3511 10.5895C59.5689 10.3871 58.7318 10.2858 57.8397 10.2858C56.8499 10.2858 55.9089 10.4055 55.0168 10.6447C54.1247 10.8747 53.2998 11.2611 52.5421 11.804C51.8211 12.3284 51.2345 13.023 50.7823 13.8879C50.3424 14.7528 50.1224 15.8017 50.1224 17.0345C50.1224 18.3226 50.3607 19.3991 50.8373 20.264C51.3261 21.1288 51.9372 21.8097 52.6704 22.3065C53.4159 22.8126 54.2469 23.176 55.1634 23.3968C56.08 23.6084 56.9843 23.7142 57.8764 23.7142C58.7318 23.7142 59.5751 23.6176 60.4061 23.4244C61.2493 23.2312 62.0253 22.969 62.7341 22.6378C63.3329 22.3709 63.8889 22.0857 64.4022 21.7821C64.9155 21.4785 65.3371 21.2163 65.667 20.9954H66.4003V25.9086C65.7159 26.1386 65.0621 26.3548 64.4389 26.5572C63.8156 26.7597 63.1618 26.9345 62.4775 27.0817C61.5854 27.2749 60.7482 27.4221 59.9661 27.5233C59.184 27.6245 58.1086 27.6751 56.7399 27.6751Z" fill="white"/>
</svg>
