<svg width="25" height="24" viewBox="0 0 25 24" fill="none" xmlns="http://www.w3.org/2000/svg">
<g opacity="0.2">
<path fill-rule="evenodd" clip-rule="evenodd" d="M0.755005 11.1175C0.755005 5.17064 6.01571 1.28229 11.2764 1.28229C13.321 1.28229 15.1576 1.55637 16.9297 2.26522L18.7341 0.0742188L23.0194 7.13053L22.085 7.8716L22.0551 7.83589C20.8746 6.42528 17.9102 2.88338 12.6488 2.88338C10.819 2.88338 7.6168 3.56956 7.6168 5.39937C7.6168 7.19769 11.1516 7.44956 14.3129 7.67481C14.3683 7.67876 14.4235 7.68269 14.4786 7.68663C17.6808 7.91536 25 8.60153 25 13.8622C25 18.8942 20.1967 23.9262 12.6488 23.9262C8.62319 23.9262 4.87208 21.1815 3.49972 19.8091L4.41463 18.8942C5.6345 20.1141 8.98915 22.5538 12.6488 22.5538C17.2233 22.5538 18.3669 20.724 18.3669 19.8091C18.3669 18.8942 17.452 17.9793 12.6488 17.9793C7.84552 17.9793 0.755005 17.2931 0.755005 11.1175ZM18.98 2.63554L18.7341 1.87857L18.4881 2.63554H17.6922L18.3361 3.10338L18.0902 3.86035L18.7341 3.39251L19.378 3.86035L19.1321 3.10338L19.776 2.63554H18.98Z" fill="white"/>
</g>
</svg>
