<svg width="524" height="561" viewBox="0 0 524 561" fill="none" xmlns="http://www.w3.org/2000/svg">
<path d="M1.54112 151.174C2.39228 150.682 3.7723 150.682 4.62347 151.174C5.47464 151.665 5.47464 152.462 4.62347 152.953C3.7723 153.445 2.39228 153.445 1.54112 152.953C0.689947 152.462 0.689947 151.665 1.54112 151.174Z" fill="#586AF3"/>
<path d="M38.5294 129.82C39.3805 129.329 40.7605 129.329 41.6117 129.82C42.4629 130.312 42.4629 131.109 41.6117 131.6C40.7605 132.091 39.3805 132.091 38.5294 131.6C37.6782 131.109 37.6782 130.312 38.5294 129.82Z" fill="#586AF3"/>
<path d="M75.5176 108.467C76.3688 107.976 77.7488 107.976 78.5999 108.467C79.4511 108.959 79.4511 109.755 78.6 110.247C77.7488 110.738 76.3688 110.738 75.5176 110.247C74.6664 109.755 74.6664 108.959 75.5176 108.467Z" fill="#586AF3"/>
<path d="M112.506 87.1138C113.357 86.6224 114.737 86.6224 115.588 87.1138C116.439 87.6052 116.439 88.4019 115.588 88.8933C114.737 89.3846 113.357 89.3846 112.506 88.8933C111.655 88.4019 111.655 87.6052 112.506 87.1138Z" fill="#586AF3"/>
<path d="M149.494 65.7605C150.345 65.2691 151.725 65.2691 152.576 65.7605C153.428 66.2519 153.428 67.0486 152.576 67.5399C151.725 68.0313 150.345 68.0313 149.494 67.5399C148.643 67.0486 148.643 66.2519 149.494 65.7605Z" fill="#586AF3"/>
<path d="M186.482 44.4072C187.333 43.9158 188.714 43.9158 189.565 44.4072C190.416 44.8986 190.416 45.6953 189.565 46.1866C188.714 46.678 187.333 46.678 186.482 46.1866C185.631 45.6953 185.631 44.8986 186.482 44.4072Z" fill="#586AF3"/>
<path d="M223.471 23.0539C224.322 22.5625 225.702 22.5625 226.553 23.0539C227.404 23.5453 227.404 24.3419 226.553 24.8333C225.702 25.3247 224.322 25.3247 223.471 24.8333C222.619 24.3419 222.619 23.5453 223.471 23.0539Z" fill="#586AF3"/>
<path d="M260.459 1.70057C261.31 1.20918 262.69 1.20918 263.541 1.70056C264.392 2.19194 264.392 2.98862 263.541 3.48001C262.69 3.97139 261.31 3.97138 260.459 3.48C259.608 2.98863 259.608 2.19195 260.459 1.70057Z" fill="#586AF3"/>
<path d="M38.5294 172.527C39.3805 172.036 40.7605 172.036 41.6117 172.527C42.4629 173.018 42.4629 173.815 41.6117 174.307C40.7605 174.798 39.3805 174.798 38.5294 174.307C37.6782 173.815 37.6782 173.018 38.5294 172.527Z" fill="#586AF3"/>
<path d="M75.5176 151.174C76.3688 150.682 77.7488 150.682 78.5999 151.174C79.4511 151.665 79.4511 152.462 78.5999 152.953C77.7488 153.445 76.3688 153.445 75.5176 152.953C74.6664 152.462 74.6664 151.665 75.5176 151.174Z" fill="#586AF3"/>
<path d="M112.506 129.82C113.357 129.329 114.737 129.329 115.588 129.82C116.439 130.312 116.439 131.109 115.588 131.6C114.737 132.091 113.357 132.091 112.506 131.6C111.655 131.109 111.655 130.312 112.506 129.82Z" fill="#586AF3"/>
<path d="M149.494 108.467C150.345 107.976 151.725 107.976 152.576 108.467C153.428 108.959 153.428 109.755 152.576 110.247C151.725 110.738 150.345 110.738 149.494 110.247C148.643 109.755 148.643 108.959 149.494 108.467Z" fill="#586AF3"/>
<path d="M186.482 87.1138C187.333 86.6224 188.714 86.6224 189.565 87.1138C190.416 87.6052 190.416 88.4019 189.565 88.8933C188.714 89.3846 187.333 89.3846 186.482 88.8933C185.631 88.4019 185.631 87.6052 186.482 87.1138Z" fill="#586AF3"/>
<path d="M223.471 65.7605C224.322 65.2691 225.702 65.2691 226.553 65.7605C227.404 66.2519 227.404 67.0486 226.553 67.5399C225.702 68.0313 224.322 68.0313 223.471 67.5399C222.619 67.0486 222.619 66.2519 223.471 65.7605Z" fill="#586AF3"/>
<path d="M260.459 44.4072C261.31 43.9158 262.69 43.9158 263.541 44.4072C264.392 44.8986 264.392 45.6952 263.541 46.1866C262.69 46.678 261.31 46.678 260.459 46.1866C259.608 45.6953 259.608 44.8986 260.459 44.4072Z" fill="#586AF3"/>
<path d="M297.447 23.0539C298.298 22.5625 299.678 22.5625 300.529 23.0539C301.381 23.5453 301.381 24.3419 300.529 24.8333C299.678 25.3247 298.298 25.3247 297.447 24.8333C296.596 24.3419 296.596 23.5453 297.447 23.0539Z" fill="#586AF3"/>
<path d="M75.5176 193.88C76.3688 193.389 77.7488 193.389 78.6 193.88C79.4511 194.372 79.4511 195.168 78.5999 195.66C77.7488 196.151 76.3688 196.151 75.5176 195.66C74.6664 195.168 74.6664 194.372 75.5176 193.88Z" fill="#586AF3"/>
<path d="M112.506 172.527C113.357 172.036 114.737 172.036 115.588 172.527C116.439 173.018 116.439 173.815 115.588 174.307C114.737 174.798 113.357 174.798 112.506 174.307C111.655 173.815 111.655 173.018 112.506 172.527Z" fill="#586AF3"/>
<path d="M149.494 151.174C150.345 150.682 151.725 150.682 152.576 151.174C153.428 151.665 153.428 152.462 152.576 152.953C151.725 153.445 150.345 153.445 149.494 152.953C148.643 152.462 148.643 151.665 149.494 151.174Z" fill="#586AF3"/>
<path d="M186.482 129.82C187.333 129.329 188.714 129.329 189.565 129.82C190.416 130.312 190.416 131.109 189.565 131.6C188.714 132.091 187.333 132.091 186.482 131.6C185.631 131.109 185.631 130.312 186.482 129.82Z" fill="#586AF3"/>
<path d="M223.471 108.467C224.322 107.976 225.702 107.976 226.553 108.467C227.404 108.959 227.404 109.755 226.553 110.247C225.702 110.738 224.322 110.738 223.471 110.247C222.619 109.755 222.619 108.959 223.471 108.467Z" fill="#586AF3"/>
<path d="M260.459 87.1138C261.31 86.6224 262.69 86.6224 263.541 87.1138C264.392 87.6052 264.392 88.4019 263.541 88.8933C262.69 89.3846 261.31 89.3846 260.459 88.8933C259.608 88.4019 259.608 87.6052 260.459 87.1138Z" fill="#586AF3"/>
<path d="M297.447 65.7605C298.298 65.2691 299.678 65.2691 300.529 65.7605C301.381 66.2519 301.381 67.0486 300.529 67.54C299.678 68.0313 298.298 68.0313 297.447 67.5399C296.596 67.0486 296.596 66.2519 297.447 65.7605Z" fill="#586AF3"/>
<path d="M334.435 44.4072C335.286 43.9158 336.666 43.9158 337.518 44.4072C338.369 44.8986 338.369 45.6952 337.518 46.1866C336.666 46.678 335.286 46.678 334.435 46.1866C333.584 45.6952 333.584 44.8986 334.435 44.4072Z" fill="#586AF3"/>
<path d="M112.506 215.234C113.357 214.742 114.737 214.742 115.588 215.234C116.439 215.725 116.439 216.522 115.588 217.013C114.737 217.505 113.357 217.505 112.506 217.013C111.655 216.522 111.655 215.725 112.506 215.234Z" fill="#586AF3"/>
<path d="M149.494 193.88C150.345 193.389 151.725 193.389 152.576 193.88C153.428 194.372 153.428 195.168 152.576 195.66C151.725 196.151 150.345 196.151 149.494 195.66C148.643 195.168 148.643 194.372 149.494 193.88Z" fill="#586AF3"/>
<path d="M186.482 172.527C187.333 172.036 188.714 172.036 189.565 172.527C190.416 173.018 190.416 173.815 189.565 174.307C188.714 174.798 187.333 174.798 186.482 174.307C185.631 173.815 185.631 173.018 186.482 172.527Z" fill="#586AF3"/>
<path d="M223.471 151.174C224.322 150.682 225.702 150.682 226.553 151.174C227.404 151.665 227.404 152.462 226.553 152.953C225.702 153.445 224.322 153.445 223.471 152.953C222.619 152.462 222.619 151.665 223.471 151.174Z" fill="#586AF3"/>
<path d="M260.459 129.82C261.31 129.329 262.69 129.329 263.541 129.82C264.392 130.312 264.392 131.109 263.541 131.6C262.69 132.091 261.31 132.091 260.459 131.6C259.608 131.109 259.608 130.312 260.459 129.82Z" fill="#586AF3"/>
<path d="M297.447 108.467C298.298 107.976 299.678 107.976 300.529 108.467C301.381 108.959 301.381 109.755 300.529 110.247C299.678 110.738 298.298 110.738 297.447 110.247C296.596 109.755 296.596 108.959 297.447 108.467Z" fill="#586AF3"/>
<path d="M334.435 87.1138C335.286 86.6224 336.666 86.6224 337.518 87.1138C338.369 87.6052 338.369 88.4019 337.518 88.8933C336.666 89.3846 335.286 89.3846 334.435 88.8933C333.584 88.4019 333.584 87.6052 334.435 87.1138Z" fill="#586AF3"/>
<path d="M371.424 65.7605C372.275 65.2691 373.655 65.2691 374.506 65.7605C375.357 66.2519 375.357 67.0486 374.506 67.54C373.655 68.0313 372.275 68.0313 371.424 67.5399C370.572 67.0486 370.572 66.2519 371.424 65.7605Z" fill="#586AF3"/>
<path d="M149.494 236.587C150.345 236.096 151.725 236.096 152.576 236.587C153.428 237.078 153.428 237.875 152.576 238.366C151.725 238.858 150.345 238.858 149.494 238.366C148.643 237.875 148.643 237.078 149.494 236.587Z" fill="#586AF3"/>
<path d="M186.482 215.234C187.333 214.742 188.714 214.742 189.565 215.234C190.416 215.725 190.416 216.522 189.565 217.013C188.714 217.505 187.333 217.505 186.482 217.013C185.631 216.522 185.631 215.725 186.482 215.234Z" fill="#586AF3"/>
<path d="M223.471 193.88C224.322 193.389 225.702 193.389 226.553 193.88C227.404 194.372 227.404 195.168 226.553 195.66C225.702 196.151 224.322 196.151 223.471 195.66C222.619 195.168 222.619 194.372 223.471 193.88Z" fill="#586AF3"/>
<path d="M260.459 172.527C261.31 172.036 262.69 172.036 263.541 172.527C264.392 173.018 264.392 173.815 263.541 174.307C262.69 174.798 261.31 174.798 260.459 174.307C259.608 173.815 259.608 173.018 260.459 172.527Z" fill="#586AF3"/>
<path d="M297.447 151.174C298.298 150.682 299.678 150.682 300.529 151.174C301.381 151.665 301.381 152.462 300.529 152.953C299.678 153.445 298.298 153.445 297.447 152.953C296.596 152.462 296.596 151.665 297.447 151.174Z" fill="#586AF3"/>
<path d="M334.435 129.82C335.286 129.329 336.666 129.329 337.518 129.82C338.369 130.312 338.369 131.109 337.518 131.6C336.666 132.091 335.286 132.091 334.435 131.6C333.584 131.109 333.584 130.312 334.435 129.82Z" fill="#586AF3"/>
<path d="M371.424 108.467C372.275 107.976 373.655 107.976 374.506 108.467C375.357 108.959 375.357 109.755 374.506 110.247C373.655 110.738 372.275 110.738 371.424 110.247C370.572 109.755 370.572 108.959 371.424 108.467Z" fill="#586AF3"/>
<path d="M408.412 87.1138C409.263 86.6224 410.643 86.6224 411.494 87.1138C412.345 87.6052 412.345 88.4019 411.494 88.8933C410.643 89.3846 409.263 89.3846 408.412 88.8933C407.561 88.4019 407.561 87.6052 408.412 87.1138Z" fill="#586AF3"/>
<path d="M186.482 257.94C187.333 257.449 188.714 257.449 189.565 257.94C190.416 258.432 190.416 259.228 189.565 259.72C188.714 260.211 187.333 260.211 186.482 259.72C185.631 259.228 185.631 258.432 186.482 257.94Z" fill="#586AF3"/>
<path d="M223.471 236.587C224.322 236.096 225.702 236.096 226.553 236.587C227.404 237.078 227.404 237.875 226.553 238.366C225.702 238.858 224.322 238.858 223.471 238.366C222.619 237.875 222.619 237.078 223.471 236.587Z" fill="#586AF3"/>
<path d="M260.459 215.234C261.31 214.742 262.69 214.742 263.541 215.234C264.392 215.725 264.392 216.522 263.541 217.013C262.69 217.505 261.31 217.505 260.459 217.013C259.608 216.522 259.608 215.725 260.459 215.234Z" fill="#586AF3"/>
<path d="M297.447 193.88C298.298 193.389 299.678 193.389 300.529 193.88C301.381 194.372 301.381 195.168 300.529 195.66C299.678 196.151 298.298 196.151 297.447 195.66C296.596 195.168 296.596 194.372 297.447 193.88Z" fill="#586AF3"/>
<path d="M334.435 172.527C335.286 172.036 336.666 172.036 337.518 172.527C338.369 173.018 338.369 173.815 337.518 174.307C336.666 174.798 335.286 174.798 334.435 174.307C333.584 173.815 333.584 173.018 334.435 172.527Z" fill="#586AF3"/>
<path d="M371.424 151.174C372.275 150.682 373.655 150.682 374.506 151.174C375.357 151.665 375.357 152.462 374.506 152.953C373.655 153.445 372.275 153.445 371.424 152.953C370.572 152.462 370.572 151.665 371.424 151.174Z" fill="#586AF3"/>
<path d="M408.412 129.82C409.263 129.329 410.643 129.329 411.494 129.82C412.345 130.312 412.345 131.108 411.494 131.6C410.643 132.091 409.263 132.091 408.412 131.6C407.561 131.109 407.561 130.312 408.412 129.82Z" fill="#586AF3"/>
<path d="M445.4 108.467C446.251 107.976 447.631 107.976 448.482 108.467C449.334 108.959 449.334 109.755 448.482 110.247C447.631 110.738 446.251 110.738 445.4 110.247C444.549 109.755 444.549 108.959 445.4 108.467Z" fill="#586AF3"/>
<path d="M223.471 279.294C224.322 278.802 225.702 278.802 226.553 279.294C227.404 279.785 227.404 280.582 226.553 281.073C225.702 281.564 224.322 281.564 223.471 281.073C222.619 280.582 222.619 279.785 223.471 279.294Z" fill="#586AF3"/>
<path d="M260.459 257.94C261.31 257.449 262.69 257.449 263.541 257.94C264.392 258.432 264.392 259.228 263.541 259.72C262.69 260.211 261.31 260.211 260.459 259.72C259.608 259.228 259.608 258.432 260.459 257.94Z" fill="#586AF3"/>
<path d="M297.447 236.587C298.298 236.096 299.678 236.096 300.529 236.587C301.381 237.078 301.381 237.875 300.529 238.366C299.678 238.858 298.298 238.858 297.447 238.366C296.596 237.875 296.596 237.078 297.447 236.587Z" fill="#586AF3"/>
<path d="M334.435 215.234C335.286 214.742 336.666 214.742 337.518 215.234C338.369 215.725 338.369 216.522 337.518 217.013C336.666 217.505 335.286 217.505 334.435 217.013C333.584 216.522 333.584 215.725 334.435 215.234Z" fill="#586AF3"/>
<path d="M371.424 193.88C372.275 193.389 373.655 193.389 374.506 193.88C375.357 194.372 375.357 195.168 374.506 195.66C373.655 196.151 372.275 196.151 371.424 195.66C370.572 195.168 370.572 194.372 371.424 193.88Z" fill="#586AF3"/>
<path d="M408.412 172.527C409.263 172.036 410.643 172.036 411.494 172.527C412.345 173.018 412.345 173.815 411.494 174.307C410.643 174.798 409.263 174.798 408.412 174.307C407.561 173.815 407.561 173.018 408.412 172.527Z" fill="#586AF3"/>
<path d="M445.4 151.174C446.251 150.682 447.631 150.682 448.482 151.174C449.334 151.665 449.334 152.462 448.482 152.953C447.631 153.445 446.251 153.445 445.4 152.953C444.549 152.462 444.549 151.665 445.4 151.174Z" fill="#586AF3"/>
<path d="M482.388 129.82C483.239 129.329 484.619 129.329 485.471 129.82C486.322 130.312 486.322 131.108 485.471 131.6C484.619 132.091 483.239 132.091 482.388 131.6C481.537 131.108 481.537 130.312 482.388 129.82Z" fill="#586AF3"/>
<path d="M260.459 300.647C261.31 300.156 262.69 300.156 263.541 300.647C264.392 301.138 264.392 301.935 263.541 302.426C262.69 302.918 261.31 302.918 260.459 302.426C259.608 301.935 259.608 301.138 260.459 300.647Z" fill="#586AF3"/>
<path d="M297.447 279.294C298.298 278.802 299.678 278.802 300.529 279.294C301.381 279.785 301.381 280.582 300.529 281.073C299.678 281.564 298.298 281.564 297.447 281.073C296.596 280.582 296.596 279.785 297.447 279.294Z" fill="#586AF3"/>
<path d="M334.435 257.94C335.286 257.449 336.666 257.449 337.518 257.94C338.369 258.432 338.369 259.228 337.518 259.72C336.666 260.211 335.286 260.211 334.435 259.72C333.584 259.228 333.584 258.432 334.435 257.94Z" fill="#586AF3"/>
<path d="M371.424 236.587C372.275 236.096 373.655 236.096 374.506 236.587C375.357 237.078 375.357 237.875 374.506 238.366C373.655 238.858 372.275 238.858 371.424 238.366C370.572 237.875 370.572 237.078 371.424 236.587Z" fill="#586AF3"/>
<path d="M408.412 215.234C409.263 214.742 410.643 214.742 411.494 215.234C412.345 215.725 412.345 216.522 411.494 217.013C410.643 217.505 409.263 217.505 408.412 217.013C407.561 216.522 407.561 215.725 408.412 215.234Z" fill="#586AF3"/>
<path d="M445.4 193.88C446.251 193.389 447.631 193.389 448.482 193.88C449.334 194.372 449.334 195.168 448.482 195.66C447.631 196.151 446.251 196.151 445.4 195.66C444.549 195.168 444.549 194.372 445.4 193.88Z" fill="#586AF3"/>
<path d="M482.388 172.527C483.239 172.036 484.619 172.036 485.471 172.527C486.322 173.018 486.322 173.815 485.471 174.307C484.619 174.798 483.239 174.798 482.388 174.307C481.537 173.815 481.537 173.018 482.388 172.527Z" fill="#586AF3"/>
<path d="M519.376 151.174C520.228 150.682 521.608 150.682 522.459 151.174C523.31 151.665 523.31 152.462 522.459 152.953C521.608 153.445 520.228 153.445 519.376 152.953C518.525 152.462 518.525 151.665 519.376 151.174Z" fill="#586AF3"/>
<g opacity="0.4">
<path d="M1.54112 236.814C2.39228 236.323 3.7723 236.323 4.62347 236.814C5.47464 237.305 5.47464 238.102 4.62347 238.593C3.7723 239.085 2.39228 239.085 1.54112 238.593C0.689947 238.102 0.689947 237.305 1.54112 236.814Z" fill="#586AF3"/>
<path d="M38.5294 215.461C39.3805 214.969 40.7605 214.969 41.6117 215.461C42.4629 215.952 42.4629 216.749 41.6117 217.24C40.7605 217.731 39.3805 217.731 38.5294 217.24C37.6782 216.749 37.6782 215.952 38.5294 215.461Z" fill="#586AF3"/>
<path d="M75.5176 194.107C76.3688 193.616 77.7488 193.616 78.5999 194.107C79.4511 194.599 79.4511 195.395 78.6 195.887C77.7488 196.378 76.3688 196.378 75.5176 195.887C74.6664 195.395 74.6664 194.599 75.5176 194.107Z" fill="#586AF3"/>
<path d="M112.506 172.754C113.357 172.263 114.737 172.263 115.588 172.754C116.439 173.245 116.439 174.042 115.588 174.533C114.737 175.025 113.357 175.025 112.506 174.533C111.655 174.042 111.655 173.245 112.506 172.754Z" fill="#586AF3"/>
<path d="M149.494 151.401C150.345 150.909 151.725 150.909 152.576 151.401C153.428 151.892 153.428 152.689 152.576 153.18C151.725 153.671 150.345 153.671 149.494 153.18C148.643 152.689 148.643 151.892 149.494 151.401Z" fill="#586AF3"/>
<path d="M186.482 130.047C187.333 129.556 188.714 129.556 189.565 130.047C190.416 130.539 190.416 131.335 189.565 131.827C188.714 132.318 187.333 132.318 186.482 131.827C185.631 131.335 185.631 130.539 186.482 130.047Z" fill="#586AF3"/>
<path d="M223.471 108.694C224.322 108.203 225.702 108.203 226.553 108.694C227.404 109.185 227.404 109.982 226.553 110.473C225.702 110.965 224.322 110.965 223.471 110.473C222.619 109.982 222.619 109.185 223.471 108.694Z" fill="#586AF3"/>
<path d="M260.459 87.3407C261.31 86.8493 262.69 86.8493 263.541 87.3407C264.392 87.8321 264.392 88.6288 263.541 89.1202C262.69 89.6115 261.31 89.6115 260.459 89.1201C259.608 88.6288 259.608 87.8321 260.459 87.3407Z" fill="#586AF3"/>
<path d="M38.5294 258.167C39.3805 257.676 40.7605 257.676 41.6117 258.167C42.4629 258.659 42.4629 259.455 41.6117 259.947C40.7605 260.438 39.3805 260.438 38.5294 259.947C37.6782 259.455 37.6782 258.659 38.5294 258.167Z" fill="#586AF3"/>
<path d="M75.5176 236.814C76.3688 236.323 77.7488 236.323 78.5999 236.814C79.4511 237.305 79.4511 238.102 78.5999 238.593C77.7488 239.085 76.3688 239.085 75.5176 238.593C74.6664 238.102 74.6664 237.305 75.5176 236.814Z" fill="#586AF3"/>
<path d="M112.506 215.461C113.357 214.969 114.737 214.969 115.588 215.461C116.439 215.952 116.439 216.749 115.588 217.24C114.737 217.731 113.357 217.731 112.506 217.24C111.655 216.749 111.655 215.952 112.506 215.461Z" fill="#586AF3"/>
<path d="M149.494 194.107C150.345 193.616 151.725 193.616 152.576 194.107C153.428 194.599 153.428 195.395 152.576 195.887C151.725 196.378 150.345 196.378 149.494 195.887C148.643 195.395 148.643 194.599 149.494 194.107Z" fill="#586AF3"/>
<path d="M186.482 172.754C187.333 172.263 188.714 172.263 189.565 172.754C190.416 173.245 190.416 174.042 189.565 174.533C188.714 175.025 187.333 175.025 186.482 174.533C185.631 174.042 185.631 173.245 186.482 172.754Z" fill="#586AF3"/>
<path d="M223.471 151.401C224.322 150.909 225.702 150.909 226.553 151.401C227.404 151.892 227.404 152.689 226.553 153.18C225.702 153.671 224.322 153.671 223.471 153.18C222.619 152.689 222.619 151.892 223.471 151.401Z" fill="#586AF3"/>
<path d="M260.459 130.047C261.31 129.556 262.69 129.556 263.541 130.047C264.392 130.539 264.392 131.335 263.541 131.827C262.69 132.318 261.31 132.318 260.459 131.827C259.608 131.335 259.608 130.539 260.459 130.047Z" fill="#586AF3"/>
<path d="M297.447 108.694C298.298 108.203 299.678 108.203 300.529 108.694C301.381 109.185 301.381 109.982 300.529 110.473C299.678 110.965 298.298 110.965 297.447 110.473C296.596 109.982 296.596 109.185 297.447 108.694Z" fill="#586AF3"/>
<path d="M75.5176 279.521C76.3688 279.029 77.7488 279.029 78.6 279.521C79.4511 280.012 79.4511 280.809 78.5999 281.3C77.7488 281.791 76.3688 281.791 75.5176 281.3C74.6664 280.809 74.6664 280.012 75.5176 279.521Z" fill="#586AF3"/>
<path d="M112.506 258.167C113.357 257.676 114.737 257.676 115.588 258.167C116.439 258.659 116.439 259.455 115.588 259.947C114.737 260.438 113.357 260.438 112.506 259.947C111.655 259.455 111.655 258.659 112.506 258.167Z" fill="#586AF3"/>
<path d="M149.494 236.814C150.345 236.323 151.725 236.323 152.576 236.814C153.428 237.305 153.428 238.102 152.576 238.593C151.725 239.085 150.345 239.085 149.494 238.593C148.643 238.102 148.643 237.305 149.494 236.814Z" fill="#586AF3"/>
<path d="M186.482 215.461C187.333 214.969 188.714 214.969 189.565 215.461C190.416 215.952 190.416 216.749 189.565 217.24C188.714 217.731 187.333 217.731 186.482 217.24C185.631 216.749 185.631 215.952 186.482 215.461Z" fill="#586AF3"/>
<path d="M223.471 194.107C224.322 193.616 225.702 193.616 226.553 194.107C227.404 194.599 227.404 195.395 226.553 195.887C225.702 196.378 224.322 196.378 223.471 195.887C222.619 195.395 222.619 194.599 223.471 194.107Z" fill="#586AF3"/>
<path d="M260.459 172.754C261.31 172.263 262.69 172.263 263.541 172.754C264.392 173.245 264.392 174.042 263.541 174.533C262.69 175.025 261.31 175.025 260.459 174.533C259.608 174.042 259.608 173.245 260.459 172.754Z" fill="#586AF3"/>
<path d="M297.447 151.401C298.298 150.909 299.678 150.909 300.529 151.401C301.381 151.892 301.381 152.689 300.529 153.18C299.678 153.671 298.298 153.671 297.447 153.18C296.596 152.689 296.596 151.892 297.447 151.401Z" fill="#586AF3"/>
<path d="M334.435 130.047C335.286 129.556 336.666 129.556 337.518 130.047C338.369 130.539 338.369 131.335 337.518 131.827C336.666 132.318 335.286 132.318 334.435 131.827C333.584 131.335 333.584 130.539 334.435 130.047Z" fill="#586AF3"/>
<path d="M112.506 300.874C113.357 300.382 114.737 300.382 115.588 300.874C116.439 301.365 116.439 302.162 115.588 302.653C114.737 303.145 113.357 303.145 112.506 302.653C111.655 302.162 111.655 301.365 112.506 300.874Z" fill="#586AF3"/>
<path d="M149.494 279.521C150.345 279.029 151.725 279.029 152.576 279.521C153.428 280.012 153.428 280.809 152.576 281.3C151.725 281.791 150.345 281.791 149.494 281.3C148.643 280.809 148.643 280.012 149.494 279.521Z" fill="#586AF3"/>
<path d="M186.482 258.167C187.333 257.676 188.714 257.676 189.565 258.167C190.416 258.659 190.416 259.455 189.565 259.947C188.714 260.438 187.333 260.438 186.482 259.947C185.631 259.455 185.631 258.659 186.482 258.167Z" fill="#586AF3"/>
<path d="M223.471 236.814C224.322 236.323 225.702 236.323 226.553 236.814C227.404 237.305 227.404 238.102 226.553 238.593C225.702 239.085 224.322 239.085 223.471 238.593C222.619 238.102 222.619 237.305 223.471 236.814Z" fill="#586AF3"/>
<path d="M260.459 215.461C261.31 214.969 262.69 214.969 263.541 215.461C264.392 215.952 264.392 216.749 263.541 217.24C262.69 217.731 261.31 217.731 260.459 217.24C259.608 216.749 259.608 215.952 260.459 215.461Z" fill="#586AF3"/>
<path d="M297.447 194.107C298.298 193.616 299.678 193.616 300.529 194.107C301.381 194.599 301.381 195.395 300.529 195.887C299.678 196.378 298.298 196.378 297.447 195.887C296.596 195.395 296.596 194.599 297.447 194.107Z" fill="#586AF3"/>
<path d="M334.435 172.754C335.286 172.263 336.666 172.263 337.518 172.754C338.369 173.245 338.369 174.042 337.518 174.533C336.666 175.025 335.286 175.025 334.435 174.533C333.584 174.042 333.584 173.245 334.435 172.754Z" fill="#586AF3"/>
<path d="M371.424 151.401C372.275 150.909 373.655 150.909 374.506 151.401C375.357 151.892 375.357 152.689 374.506 153.18C373.655 153.671 372.275 153.671 371.424 153.18C370.572 152.689 370.572 151.892 371.424 151.401Z" fill="#586AF3"/>
<path d="M149.494 322.227C150.345 321.736 151.725 321.736 152.576 322.227C153.428 322.719 153.428 323.515 152.576 324.007C151.725 324.498 150.345 324.498 149.494 324.007C148.643 323.515 148.643 322.719 149.494 322.227Z" fill="#586AF3"/>
<path d="M186.482 300.874C187.333 300.382 188.714 300.382 189.565 300.874C190.416 301.365 190.416 302.162 189.565 302.653C188.714 303.145 187.333 303.145 186.482 302.653C185.631 302.162 185.631 301.365 186.482 300.874Z" fill="#586AF3"/>
<path d="M223.471 279.521C224.322 279.029 225.702 279.029 226.553 279.521C227.404 280.012 227.404 280.809 226.553 281.3C225.702 281.791 224.322 281.791 223.471 281.3C222.619 280.809 222.619 280.012 223.471 279.521Z" fill="#586AF3"/>
<path d="M260.459 258.167C261.31 257.676 262.69 257.676 263.541 258.167C264.392 258.659 264.392 259.455 263.541 259.947C262.69 260.438 261.31 260.438 260.459 259.947C259.608 259.455 259.608 258.659 260.459 258.167Z" fill="#586AF3"/>
<path d="M297.447 236.814C298.298 236.323 299.678 236.323 300.529 236.814C301.381 237.305 301.381 238.102 300.529 238.593C299.678 239.085 298.298 239.085 297.447 238.593C296.596 238.102 296.596 237.305 297.447 236.814Z" fill="#586AF3"/>
<path d="M334.435 215.461C335.286 214.969 336.666 214.969 337.518 215.461C338.369 215.952 338.369 216.749 337.518 217.24C336.666 217.731 335.286 217.731 334.435 217.24C333.584 216.749 333.584 215.952 334.435 215.461Z" fill="#586AF3"/>
<path d="M371.424 194.107C372.275 193.616 373.655 193.616 374.506 194.107C375.357 194.599 375.357 195.395 374.506 195.887C373.655 196.378 372.275 196.378 371.424 195.887C370.572 195.395 370.572 194.599 371.424 194.107Z" fill="#586AF3"/>
<path d="M408.412 172.754C409.263 172.263 410.643 172.263 411.494 172.754C412.345 173.245 412.345 174.042 411.494 174.533C410.643 175.025 409.263 175.025 408.412 174.533C407.561 174.042 407.561 173.245 408.412 172.754Z" fill="#586AF3"/>
<path d="M186.482 343.58C187.333 343.089 188.714 343.089 189.565 343.58C190.416 344.072 190.416 344.869 189.565 345.36C188.714 345.851 187.333 345.851 186.482 345.36C185.631 344.869 185.631 344.072 186.482 343.58Z" fill="#586AF3"/>
<path d="M223.471 322.227C224.322 321.736 225.702 321.736 226.553 322.227C227.404 322.719 227.404 323.515 226.553 324.007C225.702 324.498 224.322 324.498 223.471 324.007C222.619 323.515 222.619 322.719 223.471 322.227Z" fill="#586AF3"/>
<path d="M260.459 300.874C261.31 300.382 262.69 300.382 263.541 300.874C264.392 301.365 264.392 302.162 263.541 302.653C262.69 303.145 261.31 303.145 260.459 302.653C259.608 302.162 259.608 301.365 260.459 300.874Z" fill="#586AF3"/>
<path d="M297.447 279.521C298.298 279.029 299.678 279.029 300.529 279.521C301.381 280.012 301.381 280.809 300.529 281.3C299.678 281.791 298.298 281.791 297.447 281.3C296.596 280.809 296.596 280.012 297.447 279.521Z" fill="#586AF3"/>
<path d="M334.435 258.167C335.286 257.676 336.666 257.676 337.518 258.167C338.369 258.659 338.369 259.455 337.518 259.947C336.666 260.438 335.286 260.438 334.435 259.947C333.584 259.455 333.584 258.659 334.435 258.167Z" fill="#586AF3"/>
<path d="M371.424 236.814C372.275 236.323 373.655 236.323 374.506 236.814C375.357 237.305 375.357 238.102 374.506 238.593C373.655 239.085 372.275 239.085 371.424 238.593C370.572 238.102 370.572 237.305 371.424 236.814Z" fill="#586AF3"/>
<path d="M408.412 215.461C409.263 214.969 410.643 214.969 411.494 215.461C412.345 215.952 412.345 216.749 411.494 217.24C410.643 217.731 409.263 217.731 408.412 217.24C407.561 216.749 407.561 215.952 408.412 215.461Z" fill="#586AF3"/>
<path d="M445.4 194.107C446.251 193.616 447.631 193.616 448.482 194.107C449.334 194.599 449.334 195.395 448.482 195.887C447.631 196.378 446.251 196.378 445.4 195.887C444.549 195.395 444.549 194.599 445.4 194.107Z" fill="#586AF3"/>
<path d="M223.471 364.934C224.322 364.442 225.702 364.442 226.553 364.934C227.404 365.425 227.404 366.222 226.553 366.713C225.702 367.205 224.322 367.205 223.471 366.713C222.619 366.222 222.619 365.425 223.471 364.934Z" fill="#586AF3"/>
<path d="M260.459 343.58C261.31 343.089 262.69 343.089 263.541 343.58C264.392 344.072 264.392 344.869 263.541 345.36C262.69 345.851 261.31 345.851 260.459 345.36C259.608 344.869 259.608 344.072 260.459 343.58Z" fill="#586AF3"/>
<path d="M297.447 322.227C298.298 321.736 299.678 321.736 300.529 322.227C301.381 322.719 301.381 323.515 300.529 324.007C299.678 324.498 298.298 324.498 297.447 324.007C296.596 323.515 296.596 322.719 297.447 322.227Z" fill="#586AF3"/>
<path d="M334.435 300.874C335.286 300.382 336.666 300.382 337.518 300.874C338.369 301.365 338.369 302.162 337.518 302.653C336.666 303.145 335.286 303.145 334.435 302.653C333.584 302.162 333.584 301.365 334.435 300.874Z" fill="#586AF3"/>
<path d="M371.424 279.521C372.275 279.029 373.655 279.029 374.506 279.521C375.357 280.012 375.357 280.809 374.506 281.3C373.655 281.791 372.275 281.791 371.424 281.3C370.572 280.809 370.572 280.012 371.424 279.521Z" fill="#586AF3"/>
<path d="M408.412 258.167C409.263 257.676 410.643 257.676 411.494 258.167C412.345 258.659 412.345 259.455 411.494 259.947C410.643 260.438 409.263 260.438 408.412 259.947C407.561 259.455 407.561 258.659 408.412 258.167Z" fill="#586AF3"/>
<path d="M445.4 236.814C446.251 236.323 447.631 236.323 448.482 236.814C449.334 237.305 449.334 238.102 448.482 238.593C447.631 239.085 446.251 239.085 445.4 238.593C444.549 238.102 444.549 237.305 445.4 236.814Z" fill="#586AF3"/>
<path d="M482.388 215.461C483.239 214.969 484.619 214.969 485.471 215.461C486.322 215.952 486.322 216.749 485.471 217.24C484.619 217.731 483.239 217.731 482.388 217.24C481.537 216.749 481.537 215.952 482.388 215.461Z" fill="#586AF3"/>
<path d="M260.459 386.287C261.31 385.796 262.69 385.796 263.541 386.287C264.392 386.778 264.392 387.575 263.541 388.067C262.69 388.558 261.31 388.558 260.459 388.067C259.608 387.575 259.608 386.778 260.459 386.287Z" fill="#586AF3"/>
<path d="M297.447 364.934C298.298 364.442 299.678 364.442 300.529 364.934C301.381 365.425 301.381 366.222 300.529 366.713C299.678 367.205 298.298 367.205 297.447 366.713C296.596 366.222 296.596 365.425 297.447 364.934Z" fill="#586AF3"/>
<path d="M334.435 343.58C335.286 343.089 336.666 343.089 337.518 343.58C338.369 344.072 338.369 344.869 337.518 345.36C336.666 345.851 335.286 345.851 334.435 345.36C333.584 344.869 333.584 344.072 334.435 343.58Z" fill="#586AF3"/>
<path d="M371.424 322.227C372.275 321.736 373.655 321.736 374.506 322.227C375.357 322.719 375.357 323.515 374.506 324.007C373.655 324.498 372.275 324.498 371.424 324.007C370.572 323.515 370.572 322.719 371.424 322.227Z" fill="#586AF3"/>
<path d="M408.412 300.874C409.263 300.382 410.643 300.382 411.494 300.874C412.345 301.365 412.345 302.162 411.494 302.653C410.643 303.145 409.263 303.145 408.412 302.653C407.561 302.162 407.561 301.365 408.412 300.874Z" fill="#586AF3"/>
<path d="M445.4 279.521C446.251 279.029 447.631 279.029 448.482 279.521C449.334 280.012 449.334 280.809 448.482 281.3C447.631 281.791 446.251 281.791 445.4 281.3C444.549 280.809 444.549 280.012 445.4 279.521Z" fill="#586AF3"/>
<path d="M482.388 258.167C483.239 257.676 484.619 257.676 485.471 258.167C486.322 258.659 486.322 259.455 485.471 259.947C484.619 260.438 483.239 260.438 482.388 259.947C481.537 259.455 481.537 258.659 482.388 258.167Z" fill="#586AF3"/>
<path d="M519.376 236.814C520.228 236.323 521.608 236.323 522.459 236.814C523.31 237.305 523.31 238.102 522.459 238.593C521.608 239.085 520.228 239.085 519.376 238.593C518.525 238.102 518.525 237.305 519.376 236.814Z" fill="#586AF3"/>
</g>
<g opacity="0.3">
<path d="M1.54112 322.454C2.39228 321.962 3.7723 321.962 4.62347 322.454C5.47464 322.945 5.47464 323.742 4.62347 324.233C3.7723 324.724 2.39228 324.724 1.54112 324.233C0.689947 323.742 0.689947 322.945 1.54112 322.454Z" fill="#586AF3"/>
<path d="M38.5294 301.1C39.3805 300.609 40.7605 300.609 41.6117 301.1C42.4629 301.592 42.4629 302.388 41.6117 302.88C40.7605 303.371 39.3805 303.371 38.5294 302.88C37.6782 302.388 37.6782 301.592 38.5294 301.1Z" fill="#586AF3"/>
<path d="M75.5176 279.747C76.3688 279.256 77.7488 279.256 78.5999 279.747C79.4511 280.238 79.4511 281.035 78.6 281.526C77.7488 282.018 76.3688 282.018 75.5176 281.526C74.6664 281.035 74.6664 280.238 75.5176 279.747Z" fill="#586AF3"/>
<path d="M112.506 258.394C113.357 257.902 114.737 257.902 115.588 258.394C116.439 258.885 116.439 259.682 115.588 260.173C114.737 260.664 113.357 260.664 112.506 260.173C111.655 259.682 111.655 258.885 112.506 258.394Z" fill="#586AF3"/>
<path d="M149.494 237.04C150.345 236.549 151.725 236.549 152.576 237.04C153.428 237.532 153.428 238.328 152.576 238.82C151.725 239.311 150.345 239.311 149.494 238.82C148.643 238.328 148.643 237.532 149.494 237.04Z" fill="#586AF3"/>
<path d="M186.482 215.687C187.333 215.196 188.714 215.196 189.565 215.687C190.416 216.178 190.416 216.975 189.565 217.466C188.714 217.958 187.333 217.958 186.482 217.466C185.631 216.975 185.631 216.178 186.482 215.687Z" fill="#586AF3"/>
<path d="M223.471 194.334C224.322 193.842 225.702 193.842 226.553 194.334C227.404 194.825 227.404 195.622 226.553 196.113C225.702 196.604 224.322 196.604 223.471 196.113C222.619 195.622 222.619 194.825 223.471 194.334Z" fill="#586AF3"/>
<path d="M260.459 172.98C261.31 172.489 262.69 172.489 263.541 172.98C264.392 173.472 264.392 174.268 263.541 174.76C262.69 175.251 261.31 175.251 260.459 174.76C259.608 174.268 259.608 173.472 260.459 172.98Z" fill="#586AF3"/>
<path d="M38.5294 343.807C39.3805 343.315 40.7605 343.315 41.6117 343.807C42.4629 344.298 42.4629 345.095 41.6117 345.586C40.7605 346.078 39.3805 346.078 38.5294 345.586C37.6782 345.095 37.6782 344.298 38.5294 343.807Z" fill="#586AF3"/>
<path d="M75.5176 322.454C76.3688 321.962 77.7488 321.962 78.5999 322.454C79.4511 322.945 79.4511 323.742 78.5999 324.233C77.7488 324.724 76.3688 324.724 75.5176 324.233C74.6664 323.742 74.6664 322.945 75.5176 322.454Z" fill="#586AF3"/>
<path d="M112.506 301.1C113.357 300.609 114.737 300.609 115.588 301.1C116.439 301.592 116.439 302.388 115.588 302.88C114.737 303.371 113.357 303.371 112.506 302.88C111.655 302.388 111.655 301.592 112.506 301.1Z" fill="#586AF3"/>
<path d="M149.494 279.747C150.345 279.256 151.725 279.256 152.576 279.747C153.428 280.238 153.428 281.035 152.576 281.526C151.725 282.018 150.345 282.018 149.494 281.526C148.643 281.035 148.643 280.238 149.494 279.747Z" fill="#586AF3"/>
<path d="M186.482 258.394C187.333 257.902 188.714 257.902 189.565 258.394C190.416 258.885 190.416 259.682 189.565 260.173C188.714 260.664 187.333 260.664 186.482 260.173C185.631 259.682 185.631 258.885 186.482 258.394Z" fill="#586AF3"/>
<path d="M223.471 237.04C224.322 236.549 225.702 236.549 226.553 237.04C227.404 237.532 227.404 238.328 226.553 238.82C225.702 239.311 224.322 239.311 223.471 238.82C222.619 238.328 222.619 237.532 223.471 237.04Z" fill="#586AF3"/>
<path d="M260.459 215.687C261.31 215.196 262.69 215.196 263.541 215.687C264.392 216.178 264.392 216.975 263.541 217.466C262.69 217.958 261.31 217.958 260.459 217.466C259.608 216.975 259.608 216.178 260.459 215.687Z" fill="#586AF3"/>
<path d="M297.447 194.334C298.298 193.842 299.678 193.842 300.529 194.334C301.381 194.825 301.381 195.622 300.529 196.113C299.678 196.604 298.298 196.604 297.447 196.113C296.596 195.622 296.596 194.825 297.447 194.334Z" fill="#586AF3"/>
<path d="M75.5176 365.16C76.3688 364.669 77.7488 364.669 78.6 365.16C79.4511 365.652 79.4511 366.448 78.5999 366.94C77.7488 367.431 76.3688 367.431 75.5176 366.94C74.6664 366.448 74.6664 365.652 75.5176 365.16Z" fill="#586AF3"/>
<path d="M112.506 343.807C113.357 343.315 114.737 343.315 115.588 343.807C116.439 344.298 116.439 345.095 115.588 345.586C114.737 346.078 113.357 346.078 112.506 345.586C111.655 345.095 111.655 344.298 112.506 343.807Z" fill="#586AF3"/>
<path d="M149.494 322.454C150.345 321.962 151.725 321.962 152.576 322.454C153.428 322.945 153.428 323.742 152.576 324.233C151.725 324.724 150.345 324.724 149.494 324.233C148.643 323.742 148.643 322.945 149.494 322.454Z" fill="#586AF3"/>
<path d="M186.482 301.1C187.333 300.609 188.714 300.609 189.565 301.1C190.416 301.592 190.416 302.388 189.565 302.88C188.714 303.371 187.333 303.371 186.482 302.88C185.631 302.388 185.631 301.592 186.482 301.1Z" fill="#586AF3"/>
<path d="M223.471 279.747C224.322 279.256 225.702 279.256 226.553 279.747C227.404 280.238 227.404 281.035 226.553 281.526C225.702 282.018 224.322 282.018 223.471 281.526C222.619 281.035 222.619 280.238 223.471 279.747Z" fill="#586AF3"/>
<path d="M260.459 258.394C261.31 257.902 262.69 257.902 263.541 258.394C264.392 258.885 264.392 259.682 263.541 260.173C262.69 260.664 261.31 260.664 260.459 260.173C259.608 259.682 259.608 258.885 260.459 258.394Z" fill="#586AF3"/>
<path d="M297.447 237.04C298.298 236.549 299.678 236.549 300.529 237.04C301.381 237.532 301.381 238.328 300.529 238.82C299.678 239.311 298.298 239.311 297.447 238.82C296.596 238.328 296.596 237.532 297.447 237.04Z" fill="#586AF3"/>
<path d="M334.435 215.687C335.286 215.196 336.666 215.196 337.518 215.687C338.369 216.178 338.369 216.975 337.518 217.466C336.666 217.958 335.286 217.958 334.435 217.466C333.584 216.975 333.584 216.178 334.435 215.687Z" fill="#586AF3"/>
<path d="M112.506 386.513C113.357 386.022 114.737 386.022 115.588 386.513C116.439 387.005 116.439 387.802 115.588 388.293C114.737 388.784 113.357 388.784 112.506 388.293C111.655 387.802 111.655 387.005 112.506 386.513Z" fill="#586AF3"/>
<path d="M149.494 365.16C150.345 364.669 151.725 364.669 152.576 365.16C153.428 365.652 153.428 366.448 152.576 366.94C151.725 367.431 150.345 367.431 149.494 366.94C148.643 366.448 148.643 365.652 149.494 365.16Z" fill="#586AF3"/>
<path d="M186.482 343.807C187.333 343.315 188.714 343.315 189.565 343.807C190.416 344.298 190.416 345.095 189.565 345.586C188.714 346.078 187.333 346.078 186.482 345.586C185.631 345.095 185.631 344.298 186.482 343.807Z" fill="#586AF3"/>
<path d="M223.471 322.454C224.322 321.962 225.702 321.962 226.553 322.454C227.404 322.945 227.404 323.742 226.553 324.233C225.702 324.724 224.322 324.724 223.471 324.233C222.619 323.742 222.619 322.945 223.471 322.454Z" fill="#586AF3"/>
<path d="M260.459 301.1C261.31 300.609 262.69 300.609 263.541 301.1C264.392 301.592 264.392 302.388 263.541 302.88C262.69 303.371 261.31 303.371 260.459 302.88C259.608 302.388 259.608 301.592 260.459 301.1Z" fill="#586AF3"/>
<path d="M297.447 279.747C298.298 279.256 299.678 279.256 300.529 279.747C301.381 280.238 301.381 281.035 300.529 281.526C299.678 282.018 298.298 282.018 297.447 281.526C296.596 281.035 296.596 280.238 297.447 279.747Z" fill="#586AF3"/>
<path d="M334.435 258.394C335.286 257.902 336.666 257.902 337.518 258.394C338.369 258.885 338.369 259.682 337.518 260.173C336.666 260.664 335.286 260.664 334.435 260.173C333.584 259.682 333.584 258.885 334.435 258.394Z" fill="#586AF3"/>
<path d="M371.424 237.04C372.275 236.549 373.655 236.549 374.506 237.04C375.357 237.532 375.357 238.328 374.506 238.82C373.655 239.311 372.275 239.311 371.424 238.82C370.572 238.328 370.572 237.532 371.424 237.04Z" fill="#586AF3"/>
<path d="M149.494 407.867C150.345 407.375 151.725 407.375 152.576 407.867C153.428 408.358 153.428 409.155 152.576 409.646C151.725 410.138 150.345 410.138 149.494 409.646C148.643 409.155 148.643 408.358 149.494 407.867Z" fill="#586AF3"/>
<path d="M186.482 386.513C187.333 386.022 188.714 386.022 189.565 386.513C190.416 387.005 190.416 387.802 189.565 388.293C188.714 388.784 187.333 388.784 186.482 388.293C185.631 387.802 185.631 387.005 186.482 386.513Z" fill="#586AF3"/>
<path d="M223.471 365.16C224.322 364.669 225.702 364.669 226.553 365.16C227.404 365.652 227.404 366.448 226.553 366.94C225.702 367.431 224.322 367.431 223.471 366.94C222.619 366.448 222.619 365.652 223.471 365.16Z" fill="#586AF3"/>
<path d="M260.459 343.807C261.31 343.315 262.69 343.315 263.541 343.807C264.392 344.298 264.392 345.095 263.541 345.586C262.69 346.078 261.31 346.078 260.459 345.586C259.608 345.095 259.608 344.298 260.459 343.807Z" fill="#586AF3"/>
<path d="M297.447 322.454C298.298 321.962 299.678 321.962 300.529 322.454C301.381 322.945 301.381 323.742 300.529 324.233C299.678 324.724 298.298 324.724 297.447 324.233C296.596 323.742 296.596 322.945 297.447 322.454Z" fill="#586AF3"/>
<path d="M334.435 301.1C335.286 300.609 336.666 300.609 337.518 301.1C338.369 301.592 338.369 302.388 337.518 302.88C336.666 303.371 335.286 303.371 334.435 302.88C333.584 302.388 333.584 301.592 334.435 301.1Z" fill="#586AF3"/>
<path d="M371.424 279.747C372.275 279.256 373.655 279.256 374.506 279.747C375.357 280.238 375.357 281.035 374.506 281.526C373.655 282.018 372.275 282.018 371.424 281.526C370.572 281.035 370.572 280.238 371.424 279.747Z" fill="#586AF3"/>
<path d="M408.412 258.394C409.263 257.902 410.643 257.902 411.494 258.394C412.345 258.885 412.345 259.682 411.494 260.173C410.643 260.664 409.263 260.664 408.412 260.173C407.561 259.682 407.561 258.885 408.412 258.394Z" fill="#586AF3"/>
<path d="M186.482 429.22C187.333 428.729 188.714 428.729 189.565 429.22C190.416 429.711 190.416 430.508 189.565 431C188.714 431.491 187.333 431.491 186.482 431C185.631 430.508 185.631 429.711 186.482 429.22Z" fill="#586AF3"/>
<path d="M223.471 407.867C224.322 407.375 225.702 407.375 226.553 407.867C227.404 408.358 227.404 409.155 226.553 409.646C225.702 410.138 224.322 410.138 223.471 409.646C222.619 409.155 222.619 408.358 223.471 407.867Z" fill="#586AF3"/>
<path d="M260.459 386.513C261.31 386.022 262.69 386.022 263.541 386.513C264.392 387.005 264.392 387.802 263.541 388.293C262.69 388.784 261.31 388.784 260.459 388.293C259.608 387.802 259.608 387.005 260.459 386.513Z" fill="#586AF3"/>
<path d="M297.447 365.16C298.298 364.669 299.678 364.669 300.529 365.16C301.381 365.652 301.381 366.448 300.529 366.94C299.678 367.431 298.298 367.431 297.447 366.94C296.596 366.448 296.596 365.652 297.447 365.16Z" fill="#586AF3"/>
<path d="M334.435 343.807C335.286 343.315 336.666 343.315 337.518 343.807C338.369 344.298 338.369 345.095 337.518 345.586C336.666 346.078 335.286 346.078 334.435 345.586C333.584 345.095 333.584 344.298 334.435 343.807Z" fill="#586AF3"/>
<path d="M371.424 322.454C372.275 321.962 373.655 321.962 374.506 322.454C375.357 322.945 375.357 323.742 374.506 324.233C373.655 324.724 372.275 324.724 371.424 324.233C370.572 323.742 370.572 322.945 371.424 322.454Z" fill="#586AF3"/>
<path d="M408.412 301.1C409.263 300.609 410.643 300.609 411.494 301.1C412.345 301.592 412.345 302.388 411.494 302.88C410.643 303.371 409.263 303.371 408.412 302.88C407.561 302.388 407.561 301.592 408.412 301.1Z" fill="#586AF3"/>
<path d="M445.4 279.747C446.251 279.256 447.631 279.256 448.482 279.747C449.334 280.238 449.334 281.035 448.482 281.526C447.631 282.018 446.251 282.018 445.4 281.526C444.549 281.035 444.549 280.238 445.4 279.747Z" fill="#586AF3"/>
<path d="M223.471 450.573C224.322 450.082 225.702 450.082 226.553 450.573C227.404 451.065 227.404 451.861 226.553 452.353C225.702 452.844 224.322 452.844 223.471 452.353C222.619 451.861 222.619 451.065 223.471 450.573Z" fill="#586AF3"/>
<path d="M260.459 429.22C261.31 428.729 262.69 428.729 263.541 429.22C264.392 429.711 264.392 430.508 263.541 431C262.69 431.491 261.31 431.491 260.459 431C259.608 430.508 259.608 429.711 260.459 429.22Z" fill="#586AF3"/>
<path d="M297.447 407.867C298.298 407.375 299.678 407.375 300.529 407.867C301.381 408.358 301.381 409.155 300.529 409.646C299.678 410.138 298.298 410.138 297.447 409.646C296.596 409.155 296.596 408.358 297.447 407.867Z" fill="#586AF3"/>
<path d="M334.435 386.513C335.286 386.022 336.666 386.022 337.518 386.513C338.369 387.005 338.369 387.802 337.518 388.293C336.666 388.784 335.286 388.784 334.435 388.293C333.584 387.802 333.584 387.005 334.435 386.513Z" fill="#586AF3"/>
<path d="M371.424 365.16C372.275 364.669 373.655 364.669 374.506 365.16C375.357 365.652 375.357 366.448 374.506 366.94C373.655 367.431 372.275 367.431 371.424 366.94C370.572 366.448 370.572 365.652 371.424 365.16Z" fill="#586AF3"/>
<path d="M408.412 343.807C409.263 343.315 410.643 343.315 411.494 343.807C412.345 344.298 412.345 345.095 411.494 345.586C410.643 346.078 409.263 346.078 408.412 345.586C407.561 345.095 407.561 344.298 408.412 343.807Z" fill="#586AF3"/>
<path d="M445.4 322.454C446.251 321.962 447.631 321.962 448.482 322.454C449.334 322.945 449.334 323.742 448.482 324.233C447.631 324.724 446.251 324.724 445.4 324.233C444.549 323.742 444.549 322.945 445.4 322.454Z" fill="#586AF3"/>
<path d="M482.388 301.1C483.239 300.609 484.619 300.609 485.471 301.1C486.322 301.592 486.322 302.388 485.471 302.88C484.619 303.371 483.239 303.371 482.388 302.88C481.537 302.388 481.537 301.592 482.388 301.1Z" fill="#586AF3"/>
<path d="M260.459 471.927C261.31 471.435 262.69 471.435 263.541 471.927C264.392 472.418 264.392 473.215 263.541 473.706C262.69 474.198 261.31 474.198 260.459 473.706C259.608 473.215 259.608 472.418 260.459 471.927Z" fill="#586AF3"/>
<path d="M297.447 450.573C298.298 450.082 299.678 450.082 300.529 450.573C301.381 451.065 301.381 451.861 300.529 452.353C299.678 452.844 298.298 452.844 297.447 452.353C296.596 451.861 296.596 451.065 297.447 450.573Z" fill="#586AF3"/>
<path d="M334.435 429.22C335.286 428.729 336.666 428.729 337.518 429.22C338.369 429.711 338.369 430.508 337.518 431C336.666 431.491 335.286 431.491 334.435 431C333.584 430.508 333.584 429.711 334.435 429.22Z" fill="#586AF3"/>
<path d="M371.424 407.867C372.275 407.375 373.655 407.375 374.506 407.867C375.357 408.358 375.357 409.155 374.506 409.646C373.655 410.138 372.275 410.138 371.424 409.646C370.572 409.155 370.572 408.358 371.424 407.867Z" fill="#586AF3"/>
<path d="M408.412 386.513C409.263 386.022 410.643 386.022 411.494 386.513C412.345 387.005 412.345 387.802 411.494 388.293C410.643 388.784 409.263 388.784 408.412 388.293C407.561 387.802 407.561 387.005 408.412 386.513Z" fill="#586AF3"/>
<path d="M445.4 365.16C446.251 364.669 447.631 364.669 448.482 365.16C449.334 365.652 449.334 366.448 448.482 366.94C447.631 367.431 446.251 367.431 445.4 366.94C444.549 366.448 444.549 365.652 445.4 365.16Z" fill="#586AF3"/>
<path d="M482.388 343.807C483.239 343.315 484.619 343.315 485.471 343.807C486.322 344.298 486.322 345.095 485.471 345.586C484.619 346.078 483.239 346.078 482.388 345.586C481.537 345.095 481.537 344.298 482.388 343.807Z" fill="#586AF3"/>
<path d="M519.376 322.454C520.228 321.962 521.608 321.962 522.459 322.454C523.31 322.945 523.31 323.742 522.459 324.233C521.608 324.724 520.228 324.724 519.376 324.233C518.525 323.742 518.525 322.945 519.376 322.454Z" fill="#586AF3"/>
</g>
<g opacity="0.1">
<path d="M1.54112 408.094C2.39228 407.602 3.7723 407.602 4.62347 408.094C5.47464 408.585 5.47464 409.382 4.62347 409.873C3.7723 410.364 2.39228 410.364 1.54112 409.873C0.689947 409.382 0.689947 408.585 1.54112 408.094Z" fill="#586AF3"/>
<path d="M38.5294 386.74C39.3805 386.249 40.7605 386.249 41.6117 386.74C42.4629 387.232 42.4629 388.028 41.6117 388.52C40.7605 389.011 39.3805 389.011 38.5294 388.52C37.6782 388.028 37.6782 387.232 38.5294 386.74Z" fill="#586AF3"/>
<path d="M75.5176 365.387C76.3688 364.896 77.7488 364.896 78.5999 365.387C79.4511 365.878 79.4511 366.675 78.6 367.166C77.7488 367.658 76.3688 367.658 75.5176 367.166C74.6664 366.675 74.6664 365.878 75.5176 365.387Z" fill="#586AF3"/>
<path d="M112.506 344.034C113.357 343.542 114.737 343.542 115.588 344.034C116.439 344.525 116.439 345.322 115.588 345.813C114.737 346.305 113.357 346.305 112.506 345.813C111.655 345.322 111.655 344.525 112.506 344.034Z" fill="#586AF3"/>
<path d="M149.494 322.68C150.345 322.189 151.725 322.189 152.576 322.68C153.428 323.172 153.428 323.968 152.576 324.46C151.725 324.951 150.345 324.951 149.494 324.46C148.643 323.968 148.643 323.172 149.494 322.68Z" fill="#586AF3"/>
<path d="M186.482 301.327C187.333 300.836 188.714 300.836 189.565 301.327C190.416 301.818 190.416 302.615 189.565 303.107C188.714 303.598 187.333 303.598 186.482 303.107C185.631 302.615 185.631 301.818 186.482 301.327Z" fill="#586AF3"/>
<path d="M223.471 279.974C224.322 279.482 225.702 279.482 226.553 279.974C227.404 280.465 227.404 281.262 226.553 281.753C225.702 282.245 224.322 282.245 223.471 281.753C222.619 281.262 222.619 280.465 223.471 279.974Z" fill="#586AF3"/>
<path d="M260.459 258.62C261.31 258.129 262.69 258.129 263.541 258.62C264.392 259.112 264.392 259.909 263.541 260.4C262.69 260.891 261.31 260.891 260.459 260.4C259.608 259.909 259.608 259.112 260.459 258.62Z" fill="#586AF3"/>
<path d="M38.5294 429.447C39.3805 428.956 40.7605 428.956 41.6117 429.447C42.4629 429.938 42.4629 430.735 41.6117 431.226C40.7605 431.718 39.3805 431.718 38.5294 431.226C37.6782 430.735 37.6782 429.938 38.5294 429.447Z" fill="#586AF3"/>
<path d="M75.5176 408.094C76.3688 407.602 77.7488 407.602 78.5999 408.094C79.4511 408.585 79.4511 409.382 78.5999 409.873C77.7488 410.364 76.3688 410.364 75.5176 409.873C74.6664 409.382 74.6664 408.585 75.5176 408.094Z" fill="#586AF3"/>
<path d="M112.506 386.74C113.357 386.249 114.737 386.249 115.588 386.74C116.439 387.232 116.439 388.028 115.588 388.52C114.737 389.011 113.357 389.011 112.506 388.52C111.655 388.028 111.655 387.232 112.506 386.74Z" fill="#586AF3"/>
<path d="M149.494 365.387C150.345 364.896 151.725 364.896 152.576 365.387C153.428 365.878 153.428 366.675 152.576 367.166C151.725 367.658 150.345 367.658 149.494 367.166C148.643 366.675 148.643 365.878 149.494 365.387Z" fill="#586AF3"/>
<path d="M186.482 344.034C187.333 343.542 188.714 343.542 189.565 344.034C190.416 344.525 190.416 345.322 189.565 345.813C188.714 346.305 187.333 346.305 186.482 345.813C185.631 345.322 185.631 344.525 186.482 344.034Z" fill="#586AF3"/>
<path d="M223.471 322.68C224.322 322.189 225.702 322.189 226.553 322.68C227.404 323.172 227.404 323.968 226.553 324.46C225.702 324.951 224.322 324.951 223.471 324.46C222.619 323.968 222.619 323.172 223.471 322.68Z" fill="#586AF3"/>
<path d="M260.459 301.327C261.31 300.836 262.69 300.836 263.541 301.327C264.392 301.818 264.392 302.615 263.541 303.107C262.69 303.598 261.31 303.598 260.459 303.107C259.608 302.615 259.608 301.818 260.459 301.327Z" fill="#586AF3"/>
<path d="M297.447 279.974C298.298 279.482 299.678 279.482 300.529 279.974C301.381 280.465 301.381 281.262 300.529 281.753C299.678 282.245 298.298 282.245 297.447 281.753C296.596 281.262 296.596 280.465 297.447 279.974Z" fill="#586AF3"/>
<path d="M75.5176 450.8C76.3688 450.309 77.7488 450.309 78.6 450.8C79.4511 451.292 79.4511 452.088 78.5999 452.58C77.7488 453.071 76.3688 453.071 75.5176 452.58C74.6664 452.088 74.6664 451.292 75.5176 450.8Z" fill="#586AF3"/>
<path d="M112.506 429.447C113.357 428.956 114.737 428.956 115.588 429.447C116.439 429.938 116.439 430.735 115.588 431.226C114.737 431.718 113.357 431.718 112.506 431.226C111.655 430.735 111.655 429.938 112.506 429.447Z" fill="#586AF3"/>
<path d="M149.494 408.094C150.345 407.602 151.725 407.602 152.576 408.094C153.428 408.585 153.428 409.382 152.576 409.873C151.725 410.364 150.345 410.364 149.494 409.873C148.643 409.382 148.643 408.585 149.494 408.094Z" fill="#586AF3"/>
<path d="M186.482 386.74C187.333 386.249 188.714 386.249 189.565 386.74C190.416 387.232 190.416 388.028 189.565 388.52C188.714 389.011 187.333 389.011 186.482 388.52C185.631 388.028 185.631 387.232 186.482 386.74Z" fill="#586AF3"/>
<path d="M223.471 365.387C224.322 364.896 225.702 364.896 226.553 365.387C227.404 365.878 227.404 366.675 226.553 367.166C225.702 367.658 224.322 367.658 223.471 367.166C222.619 366.675 222.619 365.878 223.471 365.387Z" fill="#586AF3"/>
<path d="M260.459 344.034C261.31 343.542 262.69 343.542 263.541 344.034C264.392 344.525 264.392 345.322 263.541 345.813C262.69 346.305 261.31 346.305 260.459 345.813C259.608 345.322 259.608 344.525 260.459 344.034Z" fill="#586AF3"/>
<path d="M297.447 322.68C298.298 322.189 299.678 322.189 300.529 322.68C301.381 323.172 301.381 323.968 300.529 324.46C299.678 324.951 298.298 324.951 297.447 324.46C296.596 323.968 296.596 323.172 297.447 322.68Z" fill="#586AF3"/>
<path d="M334.435 301.327C335.286 300.836 336.666 300.836 337.518 301.327C338.369 301.818 338.369 302.615 337.518 303.107C336.666 303.598 335.286 303.598 334.435 303.107C333.584 302.615 333.584 301.818 334.435 301.327Z" fill="#586AF3"/>
<path d="M112.506 472.154C113.357 471.662 114.737 471.662 115.588 472.154C116.439 472.645 116.439 473.442 115.588 473.933C114.737 474.424 113.357 474.424 112.506 473.933C111.655 473.442 111.655 472.645 112.506 472.154Z" fill="#586AF3"/>
<path d="M149.494 450.8C150.345 450.309 151.725 450.309 152.576 450.8C153.428 451.292 153.428 452.088 152.576 452.58C151.725 453.071 150.345 453.071 149.494 452.58C148.643 452.088 148.643 451.292 149.494 450.8Z" fill="#586AF3"/>
<path d="M186.482 429.447C187.333 428.956 188.714 428.956 189.565 429.447C190.416 429.938 190.416 430.735 189.565 431.226C188.714 431.718 187.333 431.718 186.482 431.226C185.631 430.735 185.631 429.938 186.482 429.447Z" fill="#586AF3"/>
<path d="M223.471 408.094C224.322 407.602 225.702 407.602 226.553 408.094C227.404 408.585 227.404 409.382 226.553 409.873C225.702 410.364 224.322 410.364 223.471 409.873C222.619 409.382 222.619 408.585 223.471 408.094Z" fill="#586AF3"/>
<path d="M260.459 386.74C261.31 386.249 262.69 386.249 263.541 386.74C264.392 387.232 264.392 388.028 263.541 388.52C262.69 389.011 261.31 389.011 260.459 388.52C259.608 388.028 259.608 387.232 260.459 386.74Z" fill="#586AF3"/>
<path d="M297.447 365.387C298.298 364.896 299.678 364.896 300.529 365.387C301.381 365.878 301.381 366.675 300.529 367.166C299.678 367.658 298.298 367.658 297.447 367.166C296.596 366.675 296.596 365.878 297.447 365.387Z" fill="#586AF3"/>
<path d="M334.435 344.034C335.286 343.542 336.666 343.542 337.518 344.034C338.369 344.525 338.369 345.322 337.518 345.813C336.666 346.305 335.286 346.305 334.435 345.813C333.584 345.322 333.584 344.525 334.435 344.034Z" fill="#586AF3"/>
<path d="M371.424 322.68C372.275 322.189 373.655 322.189 374.506 322.68C375.357 323.172 375.357 323.968 374.506 324.46C373.655 324.951 372.275 324.951 371.424 324.46C370.572 323.968 370.572 323.172 371.424 322.68Z" fill="#586AF3"/>
<path d="M149.494 493.507C150.345 493.016 151.725 493.016 152.576 493.507C153.428 493.998 153.428 494.795 152.576 495.286C151.725 495.778 150.345 495.778 149.494 495.286C148.643 494.795 148.643 493.998 149.494 493.507Z" fill="#586AF3"/>
<path d="M186.482 472.154C187.333 471.662 188.714 471.662 189.565 472.154C190.416 472.645 190.416 473.442 189.565 473.933C188.714 474.424 187.333 474.424 186.482 473.933C185.631 473.442 185.631 472.645 186.482 472.154Z" fill="#586AF3"/>
<path d="M223.471 450.8C224.322 450.309 225.702 450.309 226.553 450.8C227.404 451.292 227.404 452.088 226.553 452.58C225.702 453.071 224.322 453.071 223.471 452.58C222.619 452.088 222.619 451.292 223.471 450.8Z" fill="#586AF3"/>
<path d="M260.459 429.447C261.31 428.956 262.69 428.956 263.541 429.447C264.392 429.938 264.392 430.735 263.541 431.226C262.69 431.718 261.31 431.718 260.459 431.226C259.608 430.735 259.608 429.938 260.459 429.447Z" fill="#586AF3"/>
<path d="M297.447 408.094C298.298 407.602 299.678 407.602 300.529 408.094C301.381 408.585 301.381 409.382 300.529 409.873C299.678 410.364 298.298 410.364 297.447 409.873C296.596 409.382 296.596 408.585 297.447 408.094Z" fill="#586AF3"/>
<path d="M334.435 386.74C335.286 386.249 336.666 386.249 337.518 386.74C338.369 387.232 338.369 388.028 337.518 388.52C336.666 389.011 335.286 389.011 334.435 388.52C333.584 388.028 333.584 387.232 334.435 386.74Z" fill="#586AF3"/>
<path d="M371.424 365.387C372.275 364.896 373.655 364.896 374.506 365.387C375.357 365.878 375.357 366.675 374.506 367.166C373.655 367.658 372.275 367.658 371.424 367.166C370.572 366.675 370.572 365.878 371.424 365.387Z" fill="#586AF3"/>
<path d="M408.412 344.034C409.263 343.542 410.643 343.542 411.494 344.034C412.345 344.525 412.345 345.322 411.494 345.813C410.643 346.305 409.263 346.305 408.412 345.813C407.561 345.322 407.561 344.525 408.412 344.034Z" fill="#586AF3"/>
<path d="M186.482 514.86C187.333 514.369 188.714 514.369 189.565 514.86C190.416 515.352 190.416 516.148 189.565 516.64C188.714 517.131 187.333 517.131 186.482 516.64C185.631 516.148 185.631 515.352 186.482 514.86Z" fill="#586AF3"/>
<path d="M223.471 493.507C224.322 493.016 225.702 493.016 226.553 493.507C227.404 493.998 227.404 494.795 226.553 495.286C225.702 495.778 224.322 495.778 223.471 495.286C222.619 494.795 222.619 493.998 223.471 493.507Z" fill="#586AF3"/>
<path d="M260.459 472.154C261.31 471.662 262.69 471.662 263.541 472.154C264.392 472.645 264.392 473.442 263.541 473.933C262.69 474.424 261.31 474.424 260.459 473.933C259.608 473.442 259.608 472.645 260.459 472.154Z" fill="#586AF3"/>
<path d="M297.447 450.8C298.298 450.309 299.678 450.309 300.529 450.8C301.381 451.292 301.381 452.088 300.529 452.58C299.678 453.071 298.298 453.071 297.447 452.58C296.596 452.088 296.596 451.292 297.447 450.8Z" fill="#586AF3"/>
<path d="M334.435 429.447C335.286 428.956 336.666 428.956 337.518 429.447C338.369 429.938 338.369 430.735 337.518 431.226C336.666 431.718 335.286 431.718 334.435 431.226C333.584 430.735 333.584 429.938 334.435 429.447Z" fill="#586AF3"/>
<path d="M371.424 408.094C372.275 407.602 373.655 407.602 374.506 408.094C375.357 408.585 375.357 409.382 374.506 409.873C373.655 410.364 372.275 410.364 371.424 409.873C370.572 409.382 370.572 408.585 371.424 408.094Z" fill="#586AF3"/>
<path d="M408.412 386.74C409.263 386.249 410.643 386.249 411.494 386.74C412.345 387.232 412.345 388.028 411.494 388.52C410.643 389.011 409.263 389.011 408.412 388.52C407.561 388.028 407.561 387.232 408.412 386.74Z" fill="#586AF3"/>
<path d="M445.4 365.387C446.251 364.896 447.631 364.896 448.482 365.387C449.334 365.878 449.334 366.675 448.482 367.166C447.631 367.658 446.251 367.658 445.4 367.166C444.549 366.675 444.549 365.878 445.4 365.387Z" fill="#586AF3"/>
<path d="M223.471 536.214C224.322 535.722 225.702 535.722 226.553 536.214C227.404 536.705 227.404 537.502 226.553 537.993C225.702 538.484 224.322 538.484 223.471 537.993C222.619 537.502 222.619 536.705 223.471 536.214Z" fill="#586AF3"/>
<path d="M260.459 514.86C261.31 514.369 262.69 514.369 263.541 514.86C264.392 515.352 264.392 516.148 263.541 516.64C262.69 517.131 261.31 517.131 260.459 516.64C259.608 516.148 259.608 515.352 260.459 514.86Z" fill="#586AF3"/>
<path d="M297.447 493.507C298.298 493.016 299.678 493.016 300.529 493.507C301.381 493.998 301.381 494.795 300.529 495.286C299.678 495.778 298.298 495.778 297.447 495.286C296.596 494.795 296.596 493.998 297.447 493.507Z" fill="#586AF3"/>
<path d="M334.435 472.154C335.286 471.662 336.666 471.662 337.518 472.154C338.369 472.645 338.369 473.442 337.518 473.933C336.666 474.424 335.286 474.424 334.435 473.933C333.584 473.442 333.584 472.645 334.435 472.154Z" fill="#586AF3"/>
<path d="M371.424 450.8C372.275 450.309 373.655 450.309 374.506 450.8C375.357 451.292 375.357 452.088 374.506 452.58C373.655 453.071 372.275 453.071 371.424 452.58C370.572 452.088 370.572 451.292 371.424 450.8Z" fill="#586AF3"/>
<path d="M408.412 429.447C409.263 428.956 410.643 428.956 411.494 429.447C412.345 429.938 412.345 430.735 411.494 431.226C410.643 431.718 409.263 431.718 408.412 431.226C407.561 430.735 407.561 429.938 408.412 429.447Z" fill="#586AF3"/>
<path d="M445.4 408.094C446.251 407.602 447.631 407.602 448.482 408.094C449.334 408.585 449.334 409.382 448.482 409.873C447.631 410.365 446.251 410.365 445.4 409.873C444.549 409.382 444.549 408.585 445.4 408.094Z" fill="#586AF3"/>
<path d="M482.388 386.74C483.239 386.249 484.619 386.249 485.471 386.74C486.322 387.232 486.322 388.028 485.471 388.52C484.619 389.011 483.239 389.011 482.388 388.52C481.537 388.028 481.537 387.232 482.388 386.74Z" fill="#586AF3"/>
<path d="M260.459 557.567C261.31 557.075 262.69 557.075 263.541 557.567C264.392 558.058 264.392 558.855 263.541 559.346C262.69 559.838 261.31 559.838 260.459 559.346C259.608 558.855 259.608 558.058 260.459 557.567Z" fill="#586AF3"/>
<path d="M297.447 536.214C298.298 535.722 299.678 535.722 300.529 536.214C301.381 536.705 301.381 537.502 300.529 537.993C299.678 538.484 298.298 538.484 297.447 537.993C296.596 537.502 296.596 536.705 297.447 536.214Z" fill="#586AF3"/>
<path d="M334.435 514.86C335.286 514.369 336.666 514.369 337.518 514.86C338.369 515.352 338.369 516.148 337.518 516.64C336.666 517.131 335.286 517.131 334.435 516.64C333.584 516.148 333.584 515.352 334.435 514.86Z" fill="#586AF3"/>
<path d="M371.424 493.507C372.275 493.016 373.655 493.016 374.506 493.507C375.357 493.998 375.357 494.795 374.506 495.286C373.655 495.778 372.275 495.778 371.424 495.286C370.572 494.795 370.572 493.998 371.424 493.507Z" fill="#586AF3"/>
<path d="M408.412 472.154C409.263 471.662 410.643 471.662 411.494 472.154C412.345 472.645 412.345 473.442 411.494 473.933C410.643 474.424 409.263 474.424 408.412 473.933C407.561 473.442 407.561 472.645 408.412 472.154Z" fill="#586AF3"/>
<path d="M445.4 450.8C446.251 450.309 447.631 450.309 448.482 450.8C449.334 451.292 449.334 452.088 448.482 452.58C447.631 453.071 446.251 453.071 445.4 452.58C444.549 452.088 444.549 451.292 445.4 450.8Z" fill="#586AF3"/>
<path d="M482.388 429.447C483.239 428.956 484.619 428.956 485.471 429.447C486.322 429.938 486.322 430.735 485.471 431.226C484.619 431.718 483.239 431.718 482.388 431.226C481.537 430.735 481.537 429.938 482.388 429.447Z" fill="#586AF3"/>
<path d="M519.376 408.094C520.228 407.602 521.608 407.602 522.459 408.094C523.31 408.585 523.31 409.382 522.459 409.873C521.608 410.365 520.228 410.365 519.376 409.873C518.525 409.382 518.525 408.585 519.376 408.094Z" fill="#586AF3"/>
</g>
</svg>
